<?xml version="1.0" encoding="UTF-8" standalone="no"?>
<!-- Created with Inkscape (http://www.inkscape.org/) -->

<svg
   version="1.1"
   id="svg2"
   width="5000"
   height="3000"
   viewBox="0 0 5000 3000"
   sodipodi:docname="vecteezy_aesthetic-white-and-green-background-with-space-for-text_11426070.eps"
   xmlns:inkscape="http://www.inkscape.org/namespaces/inkscape"
   xmlns:sodipodi="http://sodipodi.sourceforge.net/DTD/sodipodi-0.dtd"
   xmlns="http://www.w3.org/2000/svg"
   xmlns:svg="http://www.w3.org/2000/svg">
  <defs
     id="defs6" />
  <sodipodi:namedview
     id="namedview4"
     pagecolor="#ffffff"
     bordercolor="#000000"
     borderopacity="0.25"
     inkscape:showpageshadow="2"
     inkscape:pageopacity="0.0"
     inkscape:pagecheckerboard="0"
     inkscape:deskcolor="#d1d1d1" />
  <g
     id="g8"
     inkscape:groupmode="layer"
     inkscape:label="ink_ext_XXXXXX"
     transform="matrix(1.3333333,0,0,-1.3333333,0,3000)">
    <g
       id="g10"
       transform="scale(0.1)">
      <path
         d="M 0,0 H 37500 V 22500 H 0 Z"
         style="fill:#f6f6e6;fill-opacity:1;fill-rule:nonzero;stroke:none"
         id="path12" />
      <path
         d="m 7073.16,8568.55 c -13.75,1.06 -26.87,-5.93 -33.71,-17.93 4.38,7.62 -0.23,0.12 -6.29,-6.28 -6.01,-6.45 -15.04,-15.75 -26.32,-27.39 -22.5,-23.28 -54.54,-56.4 -95.24,-99.96 -81.37,-87.11 -196.68,-215.86 -337.22,-388.79 C 6293.32,7682.34 5911.6,7158.05 5497.42,6425.62 4727.54,5064.22 3845.94,2984.53 3293.55,0 h 72.58 c 551.14,2970.08 1428.4,5037.7 2193.36,6390.39 412.11,728.79 791.37,1250.08 1070.12,1593.09 139.37,171.52 253.59,298.43 334.1,384.61 40.24,43.08 72.19,76.09 94.69,99.41 11.25,11.68 20.12,20.7 26.83,27.89 6.72,7.19 9.54,8.24 16.33,20 9.65,16.99 3.75,38.59 -13.16,48.4 -4.65,2.69 -9.88,4.33 -15.24,4.73 z"
         style="fill:#9dad7f;fill-opacity:1;fill-rule:nonzero;stroke:none"
         id="path14" />
      <path
         d="m 7266.99,9092.77 c 0,0 -234.02,-77.42 -221.4,-638.51 150,276.4 193.98,442.22 221.4,638.51 z"
         style="fill:#9dad7f;fill-opacity:1;fill-rule:nonzero;stroke:none"
         id="path16" />
      <path
         d="m 7669.45,8778.79 c -194.72,-37.07 -382.93,-99.26 -651.56,-262.81 549.1,-109.1 651.56,262.81 651.56,262.81 z"
         style="fill:#9dad7f;fill-opacity:1;fill-rule:nonzero;stroke:none"
         id="path18" />
      <path
         d="m 6781.05,9060.78 c 0,0 -262.5,-251.4 -75.03,-938.2 107.03,385.12 99.96,688.4 75.03,938.2 z"
         style="fill:#9dad7f;fill-opacity:1;fill-rule:nonzero;stroke:none"
         id="path20" />
      <path
         d="m 6312.97,8677.89 c 0,0 -245.43,-237.81 75.47,-933.09 30.9,434.54 -1.88,671.1 -75.47,933.09 z"
         style="fill:#9dad7f;fill-opacity:1;fill-rule:nonzero;stroke:none"
         id="path22" />
      <path
         d="m 5803.09,8386.13 c 0,0 -236.21,-395.74 249.96,-1132.93 -24.73,512.82 -123.71,844.53 -249.96,1132.93 z"
         style="fill:#9dad7f;fill-opacity:1;fill-rule:nonzero;stroke:none"
         id="path24" />
      <path
         d="m 5353.4,8063.16 c 0,0 -296.92,-471.13 339.14,-1369.8 -29.84,619.3 -174.45,1019.37 -339.14,1369.8 z"
         style="fill:#9dad7f;fill-opacity:1;fill-rule:nonzero;stroke:none"
         id="path26" />
      <path
         d="m 4751.21,7608.12 c 0,0 -363.05,-613.51 552.15,-1622.14 -95.74,733.43 -304.45,1221.01 -552.15,1622.14 z"
         style="fill:#9dad7f;fill-opacity:1;fill-rule:nonzero;stroke:none"
         id="path28" />
      <path
         d="m 4033.75,7028.36 c 0,0 -286.99,-780.24 879.26,-1838.44 -235.24,860.28 -540.51,1399.1 -879.26,1838.44 z"
         style="fill:#9dad7f;fill-opacity:1;fill-rule:nonzero;stroke:none"
         id="path30" />
      <path
         d="m 3245.7,6325.66 c 0,0 -439.65,-989.14 1149.57,-2373.36 C 4098.32,5052.81 3702.5,5756.02 3245.7,6325.66 Z"
         style="fill:#9dad7f;fill-opacity:1;fill-rule:nonzero;stroke:none"
         id="path32" />
      <path
         d="m 2259.26,5332.23 c 0,0 -837.7,-1233.91 1660.66,-2839.61 -360.94,1314.96 -964.18,2170.97 -1660.66,2839.61 z"
         style="fill:#9dad7f;fill-opacity:1;fill-rule:nonzero;stroke:none"
         id="path34" />
      <path
         d="m 1291.95,3993.79 c 0,0 -1090.899,-1410.12 2189.96,-3266.368 C 3007.93,2247.58 2206.64,3220.86 1291.95,3993.79 Z"
         style="fill:#9dad7f;fill-opacity:1;fill-rule:nonzero;stroke:none"
         id="path36" />
      <path
         d="m 7627.19,8386.33 c -249.96,-23.28 -563.6,-85.12 -921.17,-263.75 710,-52.81 921.17,263.75 921.17,263.75 z"
         style="fill:#9dad7f;fill-opacity:1;fill-rule:nonzero;stroke:none"
         id="path38" />
      <path
         d="m 7343.05,7904.53 c -272.19,-0.27 -544.81,-11.87 -954.61,-159.73 756.36,-119.76 954.61,159.73 954.61,159.73 z"
         style="fill:#9dad7f;fill-opacity:1;fill-rule:nonzero;stroke:none"
         id="path40" />
      <path
         d="m 6973.79,7386.8 c -261.72,-0.51 -570.12,-32.23 -920.74,-133.6 854.84,-221.36 1216.56,121.29 1216.56,121.29 -90.7,7.54 -189.41,12.5 -295.82,12.31 z"
         style="fill:#9dad7f;fill-opacity:1;fill-rule:nonzero;stroke:none"
         id="path42" />
      <path
         d="m 6971.45,6936.88 c -356.37,-0.83 -763.56,-45.16 -1278.91,-243.52 1078.98,-219.06 1407.97,242.07 1407.97,242.07 -42.35,1.05 -85.31,1.6 -129.06,1.33 z"
         style="fill:#9dad7f;fill-opacity:1;fill-rule:nonzero;stroke:none"
         id="path44" />
      <path
         d="m 6966.64,6400.23 c -471.37,-9.06 -994.88,-97.42 -1663.28,-414.25 1343.59,-222.89 1663.28,414.25 1663.28,414.25 z"
         style="fill:#9dad7f;fill-opacity:1;fill-rule:nonzero;stroke:none"
         id="path46" />
      <path
         d="m 6956.56,5643.79 c -554.72,-10.31 -1225.08,-99.61 -2043.55,-453.87 1555.08,-248.55 2043.55,453.87 2043.55,453.87 z"
         style="fill:#9dad7f;fill-opacity:1;fill-rule:nonzero;stroke:none"
         id="path48" />
      <path
         d="M 6955.16,4830.27 C 6229.88,4745.55 5379.57,4527.23 4395.27,3952.3 6498.79,3821.68 6955.16,4830.27 6955.16,4830.27 Z"
         style="fill:#9dad7f;fill-opacity:1;fill-rule:nonzero;stroke:none"
         id="path50" />
      <path
         d="M 6886.45,3899.57 C 5933.98,3741.52 4960.74,3373.55 3919.92,2492.62 6888.59,2405.66 6886.45,3899.57 6886.45,3899.57 Z"
         style="fill:#9dad7f;fill-opacity:1;fill-rule:nonzero;stroke:none"
         id="path52" />
      <path
         d="M 7056.8,2356.88 C 5871.72,2184.69 4688.24,1766.84 3481.91,727.422 7248.12,567.5 7056.8,2356.88 7056.8,2356.88 Z"
         style="fill:#9dad7f;fill-opacity:1;fill-rule:nonzero;stroke:none"
         id="path54" />
      <path
         d="m 58.1992,7282.62 c -19.289,0.39 -38.8203,0 -58.1992,0 v -189.18 c 138.59,0 274.102,-10.43 406.602,-31.33 C 1111.13,6951.09 1746.64,6559.84 2380.08,6063.32 3646.95,5070.31 4894.1,3655 6674.88,3379.61 c 1456.33,-225.23 2519.26,-42.07 3261.33,331.56 98.29,-188.16 202.49,-378.98 313.69,-573.87 584.6,-1024.25 1295.4,-2131.75 1632,-3137.2609375 h 200.2 C 11744.4,1063.36 11002.9,2192.27 10412.1,3227.27 c -111,194.57 -214.2,384.29 -311.2,570.58 590.9,342.03 951.3,811.29 1120.7,1276.29 191.7,525.98 147.3,1045.59 -98.3,1366.37 -122.8,160.39 -301.3,267.22 -510.6,282.97 -209.3,15.78 -444.3,-55.51 -696.18,-225.47 C 9408.44,6155.2 9288.12,5635.08 9404.73,5056.64 9478.36,4691.25 9644.8,4294.18 9852.5,3879.3 9150,3523.79 8128.67,3345.55 6696.68,3566.99 5000.35,3829.34 3780.55,5201.52 2492.11,6211.45 c -644.22,504.96 -1308.48,919.1 -2063.161,1038 -121.371,19.14 -244.89,30.43 -370.7498,33.21 z M 10545.2,6535.66 c 20.8,0.63 40.9,0.28 60.4,-1.32 156,-11.76 276.8,-84.03 370.3,-206.18 187.1,-244.29 243.7,-703.24 68.8,-1183 -153.2,-420.39 -478.6,-856.96 -1027.2,-1179.14 -201.6,404.49 -360.78,785.93 -428.48,1121.79 -107.73,534.49 -16.29,946.14 436.08,1251.37 199.8,134.8 375,192.11 520.1,196.48 z"
         style="fill:#567075;fill-opacity:1;fill-rule:nonzero;stroke:none"
         id="path56" />
      <path
         d="M 34663.2,8311.8 C 34117.8,8300.82 33553.7,8104.38 32976.4,7527.03 31649.1,6199.84 32673.6,3753.05 30523.5,2946.76 28237,2089.3 24756.5,3710.74 24061.6,267.152 24043.2,176.41 24028.2,87.6992 24014.9,0 H 37500 v 7706.02 c -854.9,-6.22 -1812.7,626.36 -2836.8,605.78 z"
         style="fill:#c3ceb4;fill-opacity:1;fill-rule:nonzero;stroke:none"
         id="path58" />
      <path
         d="m 9578.28,3633.52 c -63.79,-0.4 -88.05,-16.88 -121.83,-41.57 -164.54,-120.39 -14.42,-386.83 185.5,-268.63 28.91,17.11 38.95,306.41 -42.57,309.73 -7.47,0.35 -14.5,0.5 -21.1,0.47 z m 1467.62,-232.78 c -63.8,-0.39 -88.1,-16.83 -121.8,-41.56 -164.6,-120.35 -14.5,-386.8 185.4,-268.59 29,17.07 39,306.36 -42.5,309.76 -7.5,0.27 -14.5,0.43 -21.1,0.39 z m -756.4,-193.94 c -63.8,-0.39 -88.1,-16.88 -121.9,-41.57 -164.5,-120.39 -14.4,-386.79 185.5,-268.63 29,17.11 39,306.37 -42.5,309.77 -7.5,0.31 -14.5,0.47 -21.1,0.43 z m -367.2,-184.1 c -63.78,-0.4 -88.04,-16.84 -121.83,-41.57 -164.53,-120.35 -14.45,-386.79 185.47,-268.59 28.96,17.11 38.96,306.33 -42.5,309.73 -7.54,0.35 -14.57,0.46 -21.14,0.43 z m -751.36,-80.98 c -63.75,-0.39 -88.01,-16.88 -121.8,-41.56 -164.57,-120.39 -14.45,-386.8 185.47,-268.64 28.98,17.11 38.98,306.41 -42.54,309.77 -7.5,0.27 -14.49,0.47 -21.13,0.43 z m 1598.66,-60.27 c -63.8,-0.4 -88.1,-16.8 -121.9,-41.49 -164.5,-120.39 -14.4,-386.84 185.5,-268.63 29,17.11 39,306.37 -42.5,309.72 -7.5,0.36 -14.5,0.43 -21.1,0.43 z M 8722.38,2629.84 c -63.79,-0.39 -88.04,-16.79 -121.83,-41.52 -164.53,-120.39 -14.46,-386.84 185.5,-268.63 28.91,17.11 38.95,306.36 -42.57,309.76 -7.46,0.32 -14.5,0.43 -21.1,0.39 z M 10487.1,2500.2 c -63.7,-0.4 -88,-16.84 -121.8,-41.53 -164.6,-120.39 -14.4,-386.83 185.5,-268.63 28.9,17.11 39,306.37 -42.5,309.73 -7.5,0.35 -14.5,0.46 -21.2,0.43 z m 765.7,-11.1 c -63.8,-0.39 -88.1,-16.8 -121.9,-41.52 -164.5,-120.39 -14.4,-386.84 185.5,-268.6 29,17.07 39,306.33 -42.5,309.73 -7.5,0.31 -14.5,0.43 -21.1,0.43 z m -1634.09,-45.39 c -63.83,-0.39 -88.09,-16.83 -121.83,-41.56 -164.58,-120.39 -14.46,-386.8 185.46,-268.6 28.95,17.11 38.95,306.33 -42.54,309.77 -7.5,0.31 -14.53,0.43 -21.09,0.39 z m 515.39,-42.38 c -63.7,-0.39 -88,-16.84 -121.8,-41.53 -164.57,-120.39 -14.45,-386.83 185.4,-268.63 29,17.15 39.1,306.37 -42.5,309.77 -7.5,0.31 -14.5,0.43 -21.1,0.43 z m 557.8,-282.42 c -63.8,-0.39 -88.1,-16.8 -121.8,-41.53 -164.6,-120.35 -14.5,-386.83 185.5,-268.63 28.9,17.11 38.9,306.37 -42.6,309.77 -7.4,0.35 -14.5,0.46 -21.1,0.39 z m -1663.15,-95.28 c -63.83,-0.39 -88.09,-16.83 -121.84,-41.56 -164.57,-120.35 -14.45,-386.8 185.47,-268.59 28.95,17.11 38.95,306.32 -42.54,309.76 -7.5,0.31 -14.49,0.43 -21.09,0.43 z m 729.88,-54.33 c -63.83,-0.39 -88.08,-16.84 -121.83,-41.53 -164.57,-120.39 -14.46,-386.83 185.47,-268.67 28.94,17.15 38.98,306.41 -42.5,309.77 -7.5,0.35 -14.54,0.51 -21.14,0.43 z m 509.67,-175.16 c -63.8,-0.43 -88.1,-16.84 -121.9,-41.56 -164.52,-120.39 -14.4,-386.8 185.5,-268.6 29,17.07 39,306.33 -42.5,309.73 -7.5,0.31 -14.6,0.47 -21.1,0.43 z m -974.43,-233.05 c -63.79,-0.35 -88.05,-16.79 -121.8,-41.48 -164.57,-120.39 -14.45,-386.84 185.43,-268.63 28.98,17.11 39.02,306.32 -42.46,309.72 -7.54,0.32 -14.53,0.47 -21.17,0.43 z m 586.05,-141.21 c -63.79,-0.39 -88.04,-16.79 -121.83,-41.52 -164.54,-120.35 -14.46,-386.797 185.5,-268.59 28.95,17.11 38.99,306.36 -42.54,309.76 -7.5,0.31 -14.53,0.39 -21.13,0.39 z"
         style="fill:#c3ceb4;fill-opacity:1;fill-rule:nonzero;stroke:none"
         id="path60" />
      <path
         d="m 1595.43,10337.5 c -63.79,-0.5 -88.05,-16.9 -121.84,-41.6 -164.53,-120.4 -14.41,-386.84 185.47,-268.7 28.95,17.2 38.99,306.4 -42.54,309.8 -7.5,0.3 -14.49,0.5 -21.09,0.5 z m 1467.62,-232.8 c -63.79,-0.4 -88.09,-16.8 -121.84,-41.6 -164.57,-120.33 -14.45,-386.77 185.47,-268.61 28.94,17.11 38.98,306.41 -42.54,309.81 -7.5,0.3 -14.49,0.4 -21.09,0.4 z m -756.41,-194 c -63.83,-0.39 -88.09,-16.83 -121.87,-41.56 -164.54,-120.35 -14.46,-386.8 185.5,-268.59 28.95,17.11 38.95,306.36 -42.54,309.76 -7.5,0.31 -14.53,0.43 -21.09,0.43 z m -367.23,-184.1 c -63.75,-0.39 -88,-16.8 -121.79,-41.52 -164.57,-120.39 -14.46,-386.8 185.47,-268.6 28.94,17.07 38.98,306.33 -42.5,309.73 -7.54,0.31 -14.57,0.43 -21.18,0.43 z m -751.32,-80.98 c -63.75,-0.39 -88.01,-16.83 -121.8,-41.56 -164.571,-120.35 -14.45,-386.79 185.47,-268.59 28.94,17.11 38.98,306.37 -42.54,309.76 -7.5,0.28 -14.49,0.43 -21.13,0.43 z m 1598.63,-60.23 c -63.79,-0.39 -88.05,-16.8 -121.84,-41.48 -164.53,-120.39 -14.41,-386.84 185.47,-268.68 28.99,17.15 39.03,306.37 -42.5,309.77 -7.5,0.35 -14.53,0.43 -21.13,0.39 z M 739.531,9333.75 c -63.793,-0.39 -88.051,-16.8 -121.832,-41.48 -164.539,-120.39 -14.461,-386.84 185.461,-268.64 28.949,17.11 38.988,306.37 -42.539,309.73 -7.5,0.35 -14.492,0.47 -21.09,0.43 z M 2504.3,9204.14 c -63.79,-0.39 -88.09,-16.84 -121.84,-41.56 -164.57,-120.35 -14.45,-386.84 185.47,-268.63 28.95,17.14 38.98,306.36 -42.5,309.76 -7.5,0.35 -14.53,0.47 -21.13,0.43 z m 765.62,-11.09 c -63.79,-0.39 -88.04,-16.84 -121.83,-41.53 -164.54,-120.39 -14.46,-386.83 185.46,-268.63 28.95,17.11 38.99,306.37 -42.5,309.77 -7.5,0.27 -14.53,0.43 -21.13,0.39 z m -1634.06,-45.39 c -63.83,-0.39 -88.09,-16.88 -121.84,-41.57 -164.57,-120.39 -14.45,-386.79 185.47,-268.63 28.95,17.11 38.95,306.37 -42.54,309.77 -7.5,0.31 -14.53,0.47 -21.09,0.43 z m 515.39,-42.39 c -63.75,-0.39 -88.05,-16.83 -121.8,-41.56 -164.57,-120.35 -14.45,-386.8 185.43,-268.59 28.99,17.11 39.03,306.36 -42.5,309.72 -7.5,0.36 -14.53,0.47 -21.13,0.43 z m 557.81,-282.42 c -63.83,-0.39 -88.08,-16.83 -121.83,-41.52 -164.57,-120.39 -14.46,-386.84 185.47,-268.63 28.94,17.1 38.98,306.36 -42.54,309.76 -7.46,0.31 -14.5,0.43 -21.1,0.39 z M 1045.9,8727.58 c -63.83,-0.39 -88.091,-16.88 -121.88,-41.56 -164.532,-120.4 -14.411,-386.8 185.51,-268.6 28.95,17.07 38.95,306.33 -42.54,309.73 -7.5,0.31 -14.53,0.47 -21.09,0.43 z m 729.88,-54.34 c -63.83,-0.43 -88.08,-16.83 -121.83,-41.56 -164.57,-120.35 -14.46,-386.84 185.46,-268.63 28.95,17.15 38.99,306.36 -42.53,309.76 -7.47,0.35 -14.5,0.47 -21.1,0.43 z m 509.65,-175.15 c -63.79,-0.43 -88.09,-16.88 -121.84,-41.57 -164.57,-120.39 -14.45,-386.83 185.47,-268.63 28.95,17.11 38.95,306.37 -42.54,309.77 -7.5,0.27 -14.53,0.46 -21.09,0.39 z m -974.41,-233.05 c -63.79,-0.35 -88.05,-16.8 -121.8,-41.49 -164.57,-120.39 -14.49,-386.83 185.43,-268.67 28.98,17.11 38.98,306.37 -42.5,309.73 -7.5,0.35 -14.49,0.51 -21.13,0.43 z m 586.05,-141.21 c -63.79,-0.39 -88.05,-16.84 -121.84,-41.53 -164.53,-120.35 -14.45,-386.83 185.47,-268.63 28.99,17.11 39.03,306.37 -42.5,309.77 -7.54,0.31 -14.53,0.43 -21.13,0.39 z"
         style="fill:#c3ceb4;fill-opacity:1;fill-rule:nonzero;stroke:none"
         id="path62" />
      <path
         d="m 6440.94,12195.8 c -63.79,-0.4 -88.05,-16.9 -121.8,-41.5 -164.57,-120.4 -14.45,-386.9 185.47,-268.7 28.91,17.1 38.94,306.4 -42.54,309.8 -7.5,0.3 -14.53,0.5 -21.13,0.4 z m 1467.61,-232.7 c -63.78,-0.4 -88.04,-16.9 -121.79,-41.6 -164.61,-120.4 -14.49,-386.8 185.43,-268.6 28.98,17.1 38.98,306.4 -42.5,309.8 -7.54,0.2 -14.53,0.4 -21.14,0.4 z m -756.4,-194 c -63.83,-0.4 -88.09,-16.9 -121.84,-41.6 -164.57,-120.4 -14.49,-386.8 185.47,-268.6 28.95,17.1 38.95,306.4 -42.54,309.8 -7.46,0.3 -14.49,0.4 -21.09,0.4 z M 6784.96,11585 c -63.79,-0.4 -88.05,-16.8 -121.84,-41.6 -164.53,-120.3 -14.45,-386.8 185.51,-268.6 28.91,17.1 38.95,306.4 -42.54,309.8 -7.5,0.3 -14.57,0.4 -21.13,0.4 z m -751.33,-81 c -63.79,-0.4 -88.04,-16.9 -121.83,-41.5 -164.53,-120.4 -14.42,-386.9 185.5,-268.7 28.95,17.1 38.95,306.4 -42.57,309.8 -7.46,0.3 -14.5,0.5 -21.1,0.4 z m 1598.64,-60.2 c -63.83,-0.4 -88.09,-16.9 -121.84,-41.5 -164.57,-120.4 -14.45,-386.9 185.47,-268.7 28.94,17.1 38.98,306.4 -42.54,309.8 -7.46,0.3 -14.49,0.4 -21.09,0.4 z m -2047.23,-251.7 c -63.79,-0.4 -88.05,-16.8 -121.8,-41.5 -164.57,-120.4 -14.49,-386.8 185.47,-268.6 28.91,17.1 38.95,306.4 -42.54,309.8 -7.5,0.3 -14.53,0.4 -21.13,0.3 z m 1764.76,-129.6 c -63.78,-0.4 -88.04,-16.8 -121.79,-41.5 -164.61,-120.4 -14.49,-386.9 185.43,-268.7 28.98,17.1 38.98,306.4 -42.5,309.8 -7.5,0.3 -14.49,0.4 -21.14,0.4 z m 765.67,-11.1 c -63.83,-0.4 -88.09,-16.8 -121.88,-41.5 -164.53,-120.4 -14.45,-386.8 185.51,-268.6 28.91,17.1 38.99,306.3 -42.54,309.7 -7.46,0.3 -14.53,0.4 -21.09,0.4 z m -1634.1,-45.4 c -63.83,-0.4 -88.09,-16.9 -121.84,-41.6 -164.57,-120.3 -14.45,-386.7 185.47,-268.5 28.95,17 38.95,306.3 -42.54,309.7 -7.5,0.3 -14.49,0.5 -21.09,0.4 z m 515.43,-42.4 c -63.79,-0.4 -88.09,-16.8 -121.84,-41.5 -164.57,-120.4 -14.45,-386.8 185.47,-268.6 28.95,17.1 38.98,306.3 -42.54,309.7 -7.46,0.4 -14.53,0.5 -21.09,0.4 z m 557.77,-282.4 c -63.79,-0.4 -88.05,-16.8 -121.8,-41.5 -164.57,-120.4 -14.49,-386.8 185.43,-268.6 28.99,17.1 38.99,306.3 -42.5,309.7 -7.5,0.3 -14.53,0.5 -21.13,0.4 z m -1663.16,-95.3 c -63.79,-0.3 -88.05,-16.8 -121.84,-41.5 -164.57,-120.4 -14.45,-386.8 185.47,-268.6 28.94,17.1 38.98,306.3 -42.5,309.7 -7.54,0.3 -14.53,0.5 -21.13,0.4 z m 729.88,-54.3 c -63.79,-0.4 -88.05,-16.8 -121.8,-41.5 -164.57,-120.4 -14.45,-386.9 185.43,-268.7 28.99,17.2 38.99,306.4 -42.5,309.8 -7.5,0.3 -14.53,0.4 -21.13,0.4 z m 509.65,-175.2 c -63.79,-0.4 -88.05,-16.8 -121.8,-41.5 -164.61,-120.4 -14.49,-386.85 185.43,-268.6 28.95,17.1 38.98,306.3 -42.5,309.7 -7.54,0.3 -14.53,0.5 -21.13,0.4 z m -974.38,-233 c -63.79,-0.3 -88.08,-16.8 -121.83,-41.5 -164.53,-120.38 -14.46,-386.82 185.47,-268.62 28.94,17.11 38.98,306.32 -42.5,309.72 -7.54,0.3 -14.54,0.5 -21.14,0.4 z m 586.02,-141.21 c -63.79,-0.39 -88.05,-16.8 -121.8,-41.53 -164.57,-120.35 -14.49,-386.83 185.47,-268.59 28.95,17.11 38.98,306.33 -42.54,309.73 -7.5,0.31 -14.53,0.43 -21.13,0.43 z"
         style="fill:#c3ceb4;fill-opacity:1;fill-rule:nonzero;stroke:none"
         id="path64" />
      <path
         d="m 9688.71,8455.39 c -63.79,-0.39 -88.05,-16.87 -121.83,-41.56 -164.54,-120.39 -14.42,-386.84 185.46,-268.63 28.95,17.1 38.99,306.4 -42.54,309.72 -7.46,0.35 -14.49,0.51 -21.09,0.47 z m 1467.59,-232.77 c -63.8,-0.39 -88.1,-16.84 -121.8,-41.57 -164.6,-120.35 -14.5,-386.79 185.5,-268.59 28.9,17.07 38.9,306.37 -42.6,309.77 -7.5,0.27 -14.5,0.43 -21.1,0.39 z m -756.4,-193.95 c -63.8,-0.39 -88.1,-16.87 -121.8,-41.56 -164.6,-120.39 -14.5,-386.8 185.5,-268.63 28.9,17.11 38.9,306.36 -42.6,309.76 -7.5,0.31 -14.5,0.47 -21.1,0.43 z m -367.2,-184.1 c -63.75,-0.39 -88.01,-16.84 -121.8,-41.56 -164.57,-120.35 -14.45,-386.8 185.5,-268.6 28.9,17.11 39,306.33 -42.5,309.73 -7.6,0.35 -14.6,0.47 -21.2,0.43 z m -751.33,-80.98 c -63.75,-0.39 -88.01,-16.87 -121.8,-41.56 -164.57,-120.39 -14.45,-386.8 185.47,-268.63 28.94,17.11 38.98,306.4 -42.54,309.76 -7.5,0.28 -14.49,0.47 -21.13,0.43 z M 10880,7703.32 c -63.8,-0.39 -88.1,-16.8 -121.8,-41.48 -164.6,-120.39 -14.4,-386.84 185.4,-268.64 29,17.11 39.1,306.37 -42.5,309.73 -7.5,0.35 -14.5,0.43 -21.1,0.43 z m -2047.19,-251.6 c -63.79,-0.43 -88.04,-16.8 -121.83,-41.52 -164.53,-120.4 -14.46,-386.84 185.47,-268.64 28.94,17.11 38.98,306.37 -42.54,309.77 -7.5,0.31 -14.5,0.43 -21.1,0.39 z m 1764.79,-129.65 c -63.8,-0.39 -88.1,-16.84 -121.9,-41.52 -164.5,-120.39 -14.4,-386.84 185.5,-268.64 29,17.11 39,306.37 -42.5,309.73 -7.5,0.35 -14.5,0.47 -21.1,0.43 z m 765.6,-11.09 c -63.8,-0.39 -88,-16.8 -121.8,-41.53 -164.6,-120.39 -14.5,-386.83 185.4,-268.59 29,17.07 39.1,306.33 -42.5,309.73 -7.5,0.31 -14.5,0.43 -21.1,0.43 z m -1634.06,-45.39 c -63.83,-0.39 -88.09,-16.84 -121.84,-41.57 -164.57,-120.39 -14.45,-386.79 185.47,-268.59 28.95,17.07 38.95,306.33 -42.54,309.77 -7.5,0.31 -14.53,0.42 -21.09,0.39 z m 515.36,-42.39 c -63.7,-0.39 -88,-16.83 -121.8,-41.56 -164.54,-120.35 -14.4,-386.8 185.5,-268.59 28.9,17.11 39,306.36 -42.5,309.76 -7.5,0.31 -14.6,0.43 -21.2,0.43 z m 557.8,-282.42 c -63.8,-0.39 -88,-16.8 -121.8,-41.52 -164.6,-120.35 -14.4,-386.84 185.5,-268.64 28.9,17.11 39,306.37 -42.6,309.77 -7.4,0.35 -14.5,0.47 -21.1,0.39 z m -1663.12,-95.27 c -63.83,-0.39 -88.09,-16.84 -121.88,-41.56 -164.53,-120.36 -14.41,-386.8 185.51,-268.6 28.95,17.11 38.95,306.33 -42.54,309.77 -7.5,0.31 -14.53,0.43 -21.09,0.39 z m 729.88,-54.34 c -63.83,-0.39 -88.08,-16.83 -121.83,-41.52 -164.57,-120.39 -14.46,-386.84 185.47,-268.67 28.94,17.14 38.98,306.4 -42.54,309.76 -7.46,0.35 -14.5,0.51 -21.1,0.43 z m 509.64,-175.15 c -63.8,-0.43 -88.1,-16.88 -121.8,-41.57 -164.6,-120.39 -14.5,-386.79 185.4,-268.59 29,17.07 39,306.33 -42.5,309.73 -7.5,0.31 -14.5,0.46 -21.1,0.43 z m -974.4,-233.05 c -63.79,-0.35 -88.05,-16.8 -121.8,-41.49 -164.57,-120.39 -14.45,-386.83 185.43,-268.63 28.98,17.11 38.98,306.33 -42.46,309.73 -7.54,0.31 -14.53,0.47 -21.17,0.43 z m 586.05,-141.21 c -63.79,-0.39 -88.05,-16.8 -121.83,-41.53 -164.54,-120.35 -14.46,-386.79 185.48,-268.59 29,17.11 39,306.37 -42.5,309.77 -7.6,0.31 -14.55,0.39 -21.15,0.39 z"
         style="fill:#c3ceb4;fill-opacity:1;fill-rule:nonzero;stroke:none"
         id="path66" />
      <path
         d="M 0,22500 V 10217.1 c 2461.48,1052.8 2616.76,5154.8 5271.6,6150.4 1563.99,586.5 2864.26,-1142.3 4098.91,-729.2 2281.29,763.3 3464.59,2970.6 5559.29,3868.3 3601.8,1543.5 9247.4,-879.9 10491.8,2993.4 z"
         style="fill:#c3ceb4;fill-opacity:1;fill-rule:nonzero;stroke:none"
         id="path68" />
      <path
         d="m 14921.6,22500 c 503.8,-4281.7 5626.3,-1883.3 8810.1,-3247.7 1726,-739.8 2701.1,-2558.5 4580.9,-3187.5 1017.3,-340.4 2088.8,1084.1 3377.5,600.9 2223.3,-833.8 2319.1,-4311.4 4444.6,-5108.5 440.3,-165.1 903.2,-270.5 1365.3,-310.7 V 22500 Z"
         style="fill:#9dad7f;fill-opacity:1;fill-rule:nonzero;stroke:none"
         id="path70" />
      <path
         d="m 0,22500 v -4823.6 c 1371.84,48.5 2860.39,-39.8 3939.88,365 1377.07,516.4 1756.64,2063.8 3380.9,2055 5254.02,-28.5 6367.32,-656.4 10682.02,2403.6 z"
         style="fill:#567075;fill-opacity:1;fill-rule:nonzero;stroke:none"
         id="path72" />
      <path
         d="m 32021.6,7860.27 c -695,10.71 -1351,-103.08 -1926,-448.04 -734.7,-440.82 -1006.7,-1391.53 -1331.7,-2269.93 -162.4,-439.21 -337.1,-862.1 -579.2,-1199.02 -242,-336.91 -547.7,-588.05 -984.7,-697.3 -1804.2,-451.06 -3382.4,-376.37 -4667.1,-746.14 -642.4,-184.92 -1212,-484.25 -1687,-1017.54 -329.8,-370.11 -613.4,-851.558 -849,-1482.3 h 160.6 c 226.2,590.473 494.3,1038.87 800.4,1382.46 454.1,509.81 992.6,793.63 1616.5,973.2 1247.6,359.14 2834.2,287.86 4662,744.81 474,118.51 813.4,398.01 1070.1,755.27 256.7,357.27 434.4,792.03 598.2,1234.53 327.3,884.96 602.3,1793.87 1268.1,2193.36 791.6,474.92 1760.3,492.42 2796,346.33 1035.6,-146.09 2132.7,-455.23 3171.6,-616.68 467.8,-72.73 924.8,-115.19 1359.6,-98.36 v 150.82 c -422.8,-17.07 -871.6,23.48 -1336.5,95.74 -1026,159.46 -2123.8,468.91 -3173.8,617.04 -328.1,46.28 -652.2,76.87 -968.1,81.75 z"
         style="fill:#567075;fill-opacity:1;fill-rule:nonzero;stroke:none"
         id="path74" />
      <path
         d="m 34853.8,22500 c -469.3,-514.3 -889.6,-1019 -1311.7,-1523.6 -3795,1196.9 -5688.6,1312.5 -5977.1,760.9 2433.4,-767.8 3862.9,-1995.6 5828.1,-938 -520,-619.1 -1053.5,-1239.5 -1696.9,-1877.8 -2997.5,1522.3 -5426.3,-213.3 -5236.5,-131.9 1631.4,-517.7 3307.2,-687.3 5091.2,-11.1 -511.2,-496.2 -1092.9,-1004 -1789.8,-1531 -1364.2,398.2 -2611.7,446.4 -3675.2,-57 -264.1,53.1 1993.3,-659 3329.2,-199.1 -419.9,-304.7 -879.6,-616 -1387.9,-935.7 -1043.6,351.6 -1778.2,486.9 -2351.5,287.2 -85.7,11.5 986.9,-713.3 1946.8,-537.1 -203.6,-123.5 -414.4,-248.3 -633.3,-374.4 -463.5,-114.5 -309.4,481.5 -1445.2,-857.8 1090.1,92.7 1215.7,72.3 1548.1,688.2 308.8,178 602.1,353.4 881.4,526.6 -498.7,-597.6 -28.5,-1281.8 -25.7,-1940.6 76,-220.2 499.1,1360.4 220.4,2062.3 545.6,344.2 1035.8,679.3 1481.3,1007 -717.8,-875.5 -421.8,-2665.2 -364.1,-2904.7 499.6,980.5 724.9,1520.3 587.4,3071.3 665.3,502.7 1226.4,988.2 1722.2,1462.6 -490.2,-1005 -563.2,-2771.3 -491.3,-4742.1 87.9,-4.7 1665.7,3818.8 750.5,4994.6 619.3,615.6 1137.3,1213.7 1637.5,1808.4 -976.1,-2468.1 -228.3,-7647.8 39,-7245.3 630.5,2506.2 1403.1,4983.8 162.9,7485.1 460,549.3 915,1096.8 1430.7,1653 z m -5568.1,-8487.7 c -2.1,-4.9 -4.5,-8.9 -6.6,-13.8 3.7,-24.6 5.6,-17.6 6.6,13.8 z"
         style="fill:#567075;fill-opacity:1;fill-rule:nonzero;stroke:none"
         id="path76" />
    </g>
  </g>
</svg>
