<svg width="162" height="36" viewBox="0 0 162 36" fill="none" xmlns="http://www.w3.org/2000/svg">
<path d="M0.0198271 11.1713C0.0198271 8.60704 -0.0158346 6.03795 0.030019 3.47368C0.0707777 1.21731 1.27316 -0.0143076 3.28562 0.000125427C5.24714 0.0193695 6.56161 1.31353 6.59218 3.51698C6.65841 8.16442 6.55651 12.8167 6.64822 17.4641C6.73993 22.1549 9.66437 25.97 14.2344 27.6057C18.7434 29.2223 23.772 28.1831 26.9257 24.5459C28.2605 23.0064 29.3508 20.9617 29.6667 19.0181C30.166 15.9583 30.0387 12.7878 29.9469 9.67027C29.8858 7.49569 28.179 6.03795 26.192 6.26888C24.0165 6.51905 22.9568 7.78917 22.9212 9.87234C22.8855 11.8449 22.6817 14.5342 20.1547 15.0731C18.886 15.3425 17.6021 14.7459 16.8685 13.7693C15.9208 12.504 16.1246 10.0263 16.3233 8.54931C16.5322 6.99536 17.0672 5.47508 17.9741 4.16167C19.8184 1.48674 22.9925 0.0867285 26.3194 0.00494114C31.7199 -0.129767 36.1066 3.51218 36.5091 8.78987C36.7944 12.5232 36.7944 16.3528 36.2645 20.0573C35.0112 28.8518 26.4468 35.1783 17.1283 34.5673C7.68247 33.9515 0.325517 26.7879 0.035111 17.8923C-0.0362168 15.6504 0.0249247 13.4036 0.0147351 11.1569L0.0198271 11.1713Z" fill="#45BC7A"/>
<path d="M45.6493 16.2085V16.6752C46.3677 15.7803 47.1472 15.126 47.998 14.7075C48.8489 14.2889 49.8271 14.082 50.9327 14.082C52.0382 14.082 52.9655 14.3033 53.8113 14.746C54.657 15.1886 55.2888 15.814 55.7065 16.6222C55.9766 17.0937 56.1498 17.5989 56.2313 18.1425C56.3128 18.6862 56.3485 19.3838 56.3485 20.2305V27.3893C56.3485 28.1591 56.16 28.7412 55.7881 29.1357C55.4161 29.5302 54.9321 29.7275 54.3309 29.7275C53.7297 29.7275 53.2304 29.5254 52.8534 29.1213C52.4764 28.7171 52.2879 28.1398 52.2879 27.3893V20.9762C52.2879 19.7061 52.0994 18.7391 51.7275 18.0656C51.3555 17.392 50.6117 17.0601 49.4959 17.0601C48.7674 17.0601 48.1101 17.2621 47.5089 17.671C46.9077 18.08 46.4747 18.6429 46.1945 19.3549C45.9958 19.9274 45.8939 21.0003 45.8939 22.5687V27.3893C45.8939 28.1687 45.7003 28.7556 45.3181 29.1453C44.936 29.535 44.4418 29.7323 43.8305 29.7323C43.2191 29.7323 42.7605 29.5302 42.3835 29.1261C42.0065 28.722 41.818 28.1446 41.818 27.3941V16.271C41.818 15.5398 41.9861 14.9913 42.3275 14.6305C42.6637 14.2697 43.1274 14.0868 43.7133 14.0868C44.0699 14.0868 44.396 14.1686 44.6813 14.3274C44.9717 14.4861 45.201 14.7267 45.3742 15.0442C45.5474 15.3618 45.634 15.7563 45.634 16.2133L45.6493 16.2085Z" fill="#45BC7A"/>
<path d="M64.5205 16.3767V29.429C64.5205 30.3576 64.4899 31.1177 64.4237 31.7046C64.3574 32.2916 64.2657 32.715 64.1485 32.9796C63.4709 34.6153 62.0342 35.4332 59.8332 35.4332C58.6003 35.4332 57.6628 35.2744 57.0259 34.9521C56.3891 34.6346 56.0681 34.1679 56.0681 33.5569C56.0681 33.1046 56.2108 32.739 56.5012 32.4503C56.7916 32.1617 57.1686 32.0222 57.6373 32.0222C57.6985 32.0222 57.7953 32.027 57.9277 32.0414C58.0602 32.0558 58.2589 32.0703 58.5238 32.0895C58.7888 32.1088 58.9671 32.1184 59.069 32.1184C59.6141 32.1184 59.981 31.9163 60.1644 31.5122C60.3478 31.1081 60.4395 30.3864 60.4395 29.3424V16.3767C60.4395 15.6166 60.628 15.0441 61.005 14.6592C61.382 14.2743 61.8813 14.0819 62.4978 14.0819C63.1143 14.0819 63.5779 14.2743 63.9549 14.6544C64.332 15.0345 64.5154 15.6118 64.5154 16.3815L64.5205 16.3767ZM62.5029 12.2922C61.9374 12.2922 61.4483 12.1286 61.0458 11.7966C60.6433 11.4695 60.4395 11.0028 60.4395 10.4015C60.4395 9.85781 60.6484 9.40557 61.0611 9.05436C61.4737 8.70316 61.9527 8.52515 62.5029 8.52515C63.0531 8.52515 63.4964 8.68391 63.904 9.00625C64.3116 9.32378 64.5154 9.79046 64.5154 10.4015C64.5154 11.0125 64.3167 11.4551 63.9193 11.7918C63.5219 12.1238 63.0481 12.2922 62.5029 12.2922Z" fill="#45BC7A"/>
<path d="M83.9522 21.9047C83.9522 23.0498 83.7637 24.1082 83.3867 25.0752C83.0097 26.0422 82.4594 26.8745 81.7462 27.5721C81.0278 28.2697 80.1719 28.7989 79.1784 29.1742C78.1849 29.5446 77.064 29.7323 75.8209 29.7323C74.5777 29.7323 73.4772 29.5446 72.4939 29.1694C71.5106 28.7941 70.6547 28.2553 69.9363 27.5577C69.2129 26.8601 68.6677 26.0326 68.2958 25.0752C67.9239 24.1226 67.7354 23.069 67.7354 21.9096C67.7354 20.7501 67.9239 19.6772 68.3009 18.7102C68.6779 17.7432 69.223 16.9157 69.9261 16.2277C70.6343 15.5398 71.4902 15.0154 72.4939 14.6401C73.4976 14.2697 74.6083 14.082 75.8209 14.082C77.0334 14.082 78.1747 14.2697 79.1784 14.6449C80.182 15.0202 81.0431 15.5542 81.7615 16.2518C82.4798 16.9494 83.025 17.7721 83.3969 18.7343C83.7688 19.6965 83.9573 20.7501 83.9573 21.9047H83.9522ZM79.8611 21.9047C79.8611 20.3363 79.4942 19.1143 78.7657 18.2387C78.0371 17.3631 77.0538 16.9301 75.8158 16.9301C75.021 16.9301 74.3179 17.1274 73.7116 17.5171C73.1053 17.9068 72.6366 18.4841 72.3105 19.2442C71.9844 20.0044 71.8163 20.8944 71.8163 21.9096C71.8163 22.9247 71.9794 23.7955 72.3003 24.546C72.6213 25.2965 73.0849 25.8738 73.6861 26.2732C74.2873 26.6725 74.9955 26.8745 75.8107 26.8745C77.0436 26.8745 78.0269 26.4367 78.7606 25.5563C79.4943 24.6759 79.856 23.4635 79.856 21.9144L79.8611 21.9047Z" fill="#45BC7A"/>
<path d="M90.922 10.5601V16.4392C91.6862 15.6887 92.4708 15.1114 93.2656 14.712C94.0604 14.3127 95.0488 14.1107 96.2206 14.1107C97.5759 14.1107 98.7579 14.4137 99.7819 15.0199C100.801 15.6261 101.591 16.5065 102.156 17.6564C102.717 18.8062 103.002 20.1725 103.002 21.7506C103.002 22.9148 102.844 23.9829 102.533 24.9595C102.222 25.9361 101.764 26.7733 101.168 27.4901C100.572 28.2021 99.8482 28.7554 98.9973 29.1451C98.1465 29.5348 97.209 29.732 96.185 29.732C95.5583 29.732 94.9673 29.6599 94.4171 29.5204C93.8668 29.3808 93.393 29.1932 93.0058 28.9623C92.6186 28.7313 92.2874 28.4956 92.0123 28.2502C91.7372 28.0049 91.3754 27.6392 90.9322 27.1485V27.5286C90.9322 28.2502 90.7488 28.7987 90.3819 29.1691C90.0151 29.5396 89.5464 29.7272 88.9809 29.7272C88.4153 29.7272 87.9415 29.5396 87.6002 29.1691C87.2588 28.7987 87.0856 28.2502 87.0856 27.5286V10.7285C87.0856 9.94913 87.2537 9.35738 87.5849 8.95807C87.916 8.55875 88.3848 8.35669 88.9809 8.35669C89.6075 8.35669 90.0915 8.54912 90.4278 8.92919C90.764 9.30926 90.9373 9.8529 90.9373 10.5553L90.922 10.5601ZM91.1156 21.9911C91.1156 23.521 91.4875 24.6997 92.2263 25.5224C92.965 26.3451 93.9381 26.754 95.1456 26.754C96.1697 26.754 97.0562 26.3355 97.7949 25.4935C98.5337 24.6516 98.9056 23.4488 98.9056 21.8805C98.9056 20.8653 98.7528 19.9897 98.442 19.2584C98.1312 18.5272 97.6981 17.9595 97.1275 17.5602C96.562 17.1608 95.8996 16.9588 95.1405 16.9588C94.3814 16.9588 93.6732 17.1608 93.0669 17.5602C92.4606 17.9595 91.9817 18.5368 91.6353 19.2921C91.2888 20.0475 91.1105 20.9471 91.1105 21.9911H91.1156Z" fill="#45BC7A"/>
<path d="M105.865 27.3894V10.7C105.865 9.93022 106.048 9.34808 106.41 8.95358C106.772 8.55907 107.261 8.36182 107.883 8.36182C108.504 8.36182 108.998 8.55907 109.375 8.94876C109.752 9.33845 109.941 9.92539 109.941 10.7048V27.3942C109.941 28.1736 109.747 28.7605 109.365 29.1502C108.983 29.5399 108.489 29.7372 107.878 29.7372C107.266 29.7372 106.797 29.5351 106.42 29.131C106.043 28.7269 105.86 28.1495 105.86 27.399L105.865 27.3894Z" fill="#45BC7A"/>
<path d="M125.521 22.8477H117.553C117.563 23.7233 117.751 24.4931 118.113 25.157C118.475 25.8257 118.959 26.3261 119.56 26.6629C120.161 26.9996 120.829 27.168 121.552 27.168C122.041 27.168 122.484 27.1151 122.887 27.0044C123.289 26.8986 123.682 26.7254 124.059 26.4993C124.436 26.2684 124.787 26.023 125.103 25.7584C125.419 25.4938 125.837 25.1378 126.341 24.6855C126.55 24.5171 126.851 24.4305 127.238 24.4305C127.656 24.4305 127.992 24.5364 128.252 24.7529C128.512 24.9694 128.639 25.2725 128.639 25.667C128.639 26.0134 128.496 26.4223 128.206 26.8842C127.916 27.3508 127.482 27.7934 126.902 28.2216C126.321 28.6498 125.587 29.0058 124.706 29.2849C123.824 29.5639 122.81 29.7082 121.669 29.7082C119.05 29.7082 117.018 29.0058 115.566 27.5962C114.114 26.1866 113.385 24.2766 113.385 21.8615C113.385 20.7261 113.563 19.6676 113.92 18.6958C114.277 17.724 114.801 16.8917 115.489 16.1941C116.177 15.4965 117.023 14.9673 118.026 14.592C119.03 14.2216 120.146 14.0339 121.369 14.0339C122.958 14.0339 124.329 14.3515 125.465 14.9865C126.606 15.6216 127.457 16.4394 128.023 17.4449C128.588 18.4504 128.873 19.4752 128.873 20.5192C128.873 21.4862 128.578 22.1164 127.992 22.4003C127.406 22.6889 126.581 22.8285 125.516 22.8285L125.521 22.8477ZM117.553 20.6635H124.94C124.838 19.3501 124.466 18.3638 123.814 17.7095C123.162 17.0552 122.306 16.7281 121.241 16.7281C120.176 16.7281 119.392 17.0601 118.74 17.724C118.088 18.3879 117.69 19.3645 117.553 20.6635Z" fill="#45BC7A"/>
<path d="M145.432 24.6951C145.432 25.7583 145.157 26.6676 144.611 27.4229C144.066 28.1782 143.256 28.7508 142.186 29.1404C141.116 29.5301 139.817 29.7274 138.284 29.7274C136.75 29.7274 135.568 29.5157 134.524 29.0923C133.479 28.669 132.71 28.1398 132.211 27.5047C131.711 26.8696 131.467 26.2346 131.467 25.5947C131.467 25.1714 131.625 24.8105 131.946 24.5074C132.267 24.2043 132.669 24.0552 133.153 24.0552C133.581 24.0552 133.907 24.1562 134.136 24.3535C134.366 24.5507 134.585 24.8298 134.794 25.1858C135.212 25.8738 135.711 26.3837 136.292 26.7205C136.872 27.0573 137.667 27.2257 138.671 27.2257C139.486 27.2257 140.159 27.0525 140.678 26.7109C141.203 26.3693 141.463 25.9748 141.463 25.5322C141.463 24.8538 141.193 24.3631 140.648 24.0504C140.103 23.7377 139.211 23.4442 137.968 23.1604C136.567 22.8332 135.42 22.4868 134.544 22.126C133.663 21.7652 132.96 21.2889 132.43 20.6971C131.9 20.1054 131.64 19.3789 131.64 18.5129C131.64 17.7431 131.885 17.0119 132.374 16.3287C132.863 15.6407 133.581 15.0971 134.529 14.6881C135.476 14.2792 136.628 14.0771 137.968 14.0771C139.022 14.0771 139.97 14.183 140.811 14.3851C141.651 14.5919 142.354 14.871 142.915 15.2174C143.475 15.5638 143.903 15.9486 144.199 16.372C144.494 16.7954 144.637 17.2091 144.637 17.6133C144.637 18.0559 144.479 18.4167 144.168 18.7005C143.857 18.9844 143.409 19.1239 142.833 19.1239C142.416 19.1239 142.059 19.0133 141.769 18.7871C141.478 18.561 141.137 18.2242 140.76 17.772C140.449 17.3967 140.087 17.0937 139.669 16.8675C139.252 16.6414 138.686 16.5308 137.968 16.5308C137.249 16.5308 136.618 16.6799 136.134 16.9734C135.65 17.2668 135.4 17.6373 135.4 18.0799C135.4 18.484 135.578 18.816 135.935 19.0758C136.292 19.3356 136.776 19.5473 137.382 19.7157C137.988 19.884 138.824 20.0909 139.889 20.3363C141.152 20.6298 142.186 20.9761 142.986 21.3803C143.786 21.7844 144.392 22.2607 144.805 22.8091C145.218 23.3576 145.427 23.9878 145.427 24.6903L145.432 24.6951Z" fill="#45BC7A"/>
<path d="M162 24.6951C162 25.7583 161.725 26.6676 161.18 27.4229C160.635 28.1782 159.825 28.7508 158.755 29.1404C157.685 29.5301 156.385 29.7274 154.852 29.7274C153.318 29.7274 152.136 29.5157 151.092 29.0923C150.047 28.669 149.278 28.1398 148.779 27.5047C148.28 26.8696 148.035 26.2346 148.035 25.5947C148.035 25.1714 148.193 24.8105 148.514 24.5074C148.83 24.2092 149.237 24.0552 149.721 24.0552C150.149 24.0552 150.475 24.1562 150.705 24.3535C150.934 24.5507 151.153 24.8298 151.362 25.1858C151.78 25.8738 152.279 26.3837 152.86 26.7205C153.441 27.0573 154.235 27.2257 155.239 27.2257C156.054 27.2257 156.727 27.0525 157.247 26.7109C157.771 26.3693 158.031 25.9748 158.031 25.5322C158.031 24.8538 157.761 24.3631 157.216 24.0504C156.671 23.7377 155.779 23.4442 154.536 23.1604C153.135 22.8332 151.989 22.4868 151.112 22.126C150.231 21.7652 149.528 21.2889 148.998 20.6971C148.468 20.1054 148.208 19.3789 148.208 18.5129C148.208 17.7431 148.453 17.0119 148.942 16.3287C149.431 15.6407 150.149 15.0971 151.097 14.6881C152.045 14.2792 153.196 14.0771 154.536 14.0771C155.591 14.0771 156.538 14.183 157.379 14.3851C158.22 14.5919 158.923 14.871 159.483 15.2174C160.044 15.5638 160.472 15.9486 160.767 16.372C161.063 16.7954 161.205 17.2091 161.205 17.6133C161.205 18.0559 161.047 18.4167 160.736 18.7005C160.426 18.9844 159.977 19.1239 159.402 19.1239C158.984 19.1239 158.627 19.0133 158.337 18.7871C158.046 18.561 157.705 18.2242 157.328 17.772C157.017 17.3967 156.656 17.0937 156.238 16.8675C155.82 16.6414 155.254 16.5308 154.536 16.5308C153.818 16.5308 153.186 16.6799 152.702 16.9734C152.218 17.2668 151.968 17.6373 151.968 18.0799C151.968 18.484 152.147 18.816 152.503 19.0758C152.86 19.3356 153.344 19.5473 153.95 19.7157C154.556 19.884 155.392 20.0909 156.457 20.3363C157.72 20.6298 158.755 20.9761 159.554 21.3803C160.354 21.7844 160.961 22.2607 161.373 22.8091C161.786 23.3576 161.995 23.9878 161.995 24.6903L162 24.6951Z" fill="#45BC7A"/>
</svg>
