<svg enable-background="new 0 0 22 22" height="22" viewBox="0 0 22 22" width="22" xmlns="http://www.w3.org/2000/svg"><path d="m1.255 20.556h4.286v-12.896h-4.286zm2.171-19.112c-1.466 0-2.426.962-2.426 2.228 0 1.237.932 2.229 2.37 2.229h.028c1.496 0 2.426-.992 2.426-2.229-.029-1.266-.929-2.228-2.398-2.228m17.574 11.717v7.395h-4.287v-6.899c0-1.732-.62-2.916-2.171-2.916-1.185 0-1.89.797-2.2 1.569-.113.275-.142.659-.142 1.045v7.201h-4.288s.059-11.685 0-12.896h4.288v1.828c-.009.015-.021.028-.029.042h.029v-.042c.569-.878 1.587-2.131 3.864-2.131 2.821 0 4.936 1.843 4.936 5.804" fill="#f21c0a"/></svg>