<svg width="11" height="16" viewBox="0 0 11 16" fill="none" xmlns="http://www.w3.org/2000/svg">
<path d="M11 0.643799L10.4137 3.56728C9.85065 2.96922 9.02921 2.67018 7.94941 2.67018C6.86962 2.67018 5.99518 3.08179 5.32611 3.90501C4.94851 4.36939 4.68022 4.94987 4.52123 5.64644H9.98645L9.66847 7.28232H4.32249C4.31587 7.44415 4.31256 7.65172 4.31256 7.90501C4.31256 8.15128 4.31918 8.40809 4.33243 8.67546H9.39024L9.07227 10.3113H4.5411C4.70671 11.0642 4.96176 11.6552 5.30623 12.0844C5.96868 12.9147 6.82987 13.3298 7.88979 13.3298C9.1617 13.3298 10.1752 12.9147 10.9304 12.0844V15.314C10.0693 15.7713 9.06564 16 7.9196 16C5.98525 16 4.39536 15.2964 3.14995 13.8892C2.30202 12.9323 1.74225 11.7397 1.47064 10.3113H0L0.317977 8.67546H1.29178C1.28516 8.5066 1.28184 8.32718 1.28184 8.1372C1.28184 7.81354 1.28847 7.52858 1.30172 7.28232H0L0.317977 5.64644H1.50045C1.77868 4.24626 2.33183 3.07476 3.15989 2.13193C4.41192 0.710642 6.05812 0 8.09846 0C9.21138 0 10.1786 0.2146 11 0.643799Z" fill="#2D3238"/>
</svg>
