<svg height="19.584" viewBox="0 0 16.73 19.584" width="16.73" xmlns="http://www.w3.org/2000/svg"><path d="m51.729 17.458c-.22-.537-.443-1.074-.687-1.6a.758.758 0 0 0 -1.009-.492c-.655.15-1.3.35-1.952.484a7.364 7.364 0 0 1 -3.782-.106 4.462 4.462 0 0 1 -2.912-3.091h4.246a.6.6 0 0 0 .6-.6v-1.342a.6.6 0 0 0 -.6-.6h-4.652c0-.374 0-.732 0-1.09h4.652a.6.6 0 0 0 .6-.6v-1.341a.6.6 0 0 0 -.6-.6h-4.067a.061.061 0 0 1 .008-.041 4.326 4.326 0 0 1 2.367-2.464 7.1 7.1 0 0 1 4.144-.236c.663.134 1.314.338 1.976.488a.745.745 0 0 0 .972-.484c.24-.521.46-1.049.679-1.582a.8.8 0 0 0 -.386-1.131 2.514 2.514 0 0 0 -.366-.176 11.465 11.465 0 0 0 -6.067-.716 8.664 8.664 0 0 0 -4.022 1.662 8.815 8.815 0 0 0 -3.022 4.473l-.069.207h-2.09a.6.6 0 0 0 -.6.6v1.338a.6.6 0 0 0 .6.6h1.647v1.09h-1.647a.6.6 0 0 0 -.6.6v1.338a.6.6 0 0 0 .6.6h1.985c.15.488.277.984.468 1.452a8.236 8.236 0 0 0 5.222 4.969 10.783 10.783 0 0 0 6.316.077 10.5 10.5 0 0 0 1.614-.586.77.77 0 0 0 .434-1.1z" fill="#ffbc0d" transform="translate(-35.088)"/></svg>