<svg xmlns="http://www.w3.org/2000/svg" xmlns:xlink="http://www.w3.org/1999/xlink" viewBox="0 0 292.35 117.42"><defs><style>.cls-1{fill:none;}.cls-2{clip-path:url(#clip-path);}.cls-3{fill:#fff;}</style><clipPath id="clip-path" transform="translate(0 -0.01)"><rect class="cls-1" width="292.34" height="117.42"/></clipPath></defs><g id="Layer_2" data-name="Layer 2"><g id="c_back"><g class="cls-2"><path class="cls-3" d="M227.44,0V58.59a38.81,38.81,0,0,0-5.4,5.22V0H157.13V53.36h-5.37V0H86.84V53.45H81.47V0H16.56V60.9L0,116.13H14.56l7.32-24.46H24l12.07,24.46h17.6L41.94,91.67h26.6l-7.37,24.46H77.08l7.28-24.4h3.5v-.06h35.43l-7,24.38h16.06l6.8-24.38h7.23l.19,24.38H160l15.46-24.38h10.11l-5.21,24.38h15.8l5.13-24.38h9.13c-.37,7.56,1.57,14.43,6.58,19,6.12,5.63,15.53,6.7,22.49,6.7a135.07,135.07,0,0,0,29.34-3.6l5.48-22.15h18V0ZM79.14,56.54l-1,3.14-8.63,28.7-.34,1H40.84l-2.22-4.68,30.6-31.26H49.56L25.64,79.22l7.74-25.77H18.89V2.32H79.14ZM95.89,80.82h0c-.58,0-1.17.07-1.84.07-.87,0-1.57,0-2.22,0l-3.85,0,1.78-6.59L90.58,71l2-7.65c.9,0,1.77,0,2.61,0h3c5.1,0,8.33.29,9.49,1.92.91,1.23.8,3.36-.27,6.6-1.82,5.56-4.12,8.4-11.54,9m43.88,8.57,6.35-22.54.23,22.54Zm9.65-36H134.33L124,89.39H108c8.14-3,13.11-8.78,14.64-17.32,1.26-6.64.66-11-2-14.29-4.06-4.86-12.21-4.44-19.45-4.44l-12,0v-51h60.24Zm36.61,36H177l13.73-21.61Zm33.67-35,0,12.49a50.24,50.24,0,0,0-8,17.26,35.59,35.59,0,0,0-1,5.28h-8.85l7.57-35.94-25.5,0-22.82,36h-1.66V2.32H219.7Zm34.76,49.74a57.12,57.12,0,0,1-10.14,1c-8.7,0-14.75-4-14.87-13.47h28.09Zm35.59-14.71H274.86l2.51-10H246.94l-2.51,10h-14.7V87.32c.22-1.13.43-2.32.71-3.58,2.67-10.83,9.79-21.54,22.09-21.54,4.86,0,9.69,1.85,9,8.6h18.1c.72-3.14,1.91-8.5-1.5-13.42-3.86-5.35-11.63-7.49-21.72-7.49-7.17,0-17.65,1.15-26.72,7V2.32h60.32Z" transform="translate(0 -0.01)"/></g></g></g></svg>