<svg width="200" height="38" viewBox="0 0 200 38" fill="none" xmlns="http://www.w3.org/2000/svg">
<g clip-path="url(#clip0_1_8)">
<path fill-rule="evenodd" clip-rule="evenodd" d="M50.9592 8.69635L52.3637 8.69307C52.832 8.69188 52.9098 8.61512 52.9087 8.15492L52.9054 6.69732C52.9046 6.23712 52.8264 6.16054 52.3581 6.16164L45.9854 6.17627C45.491 6.17746 45.4392 6.22864 45.4403 6.71442L45.4436 8.17202C45.4445 8.63222 45.5228 8.7088 45.991 8.70772L47.3956 8.70444L47.4235 21.1829L46.0191 21.1861C45.5507 21.1873 45.4728 21.2642 45.4739 21.7244L45.4771 23.182C45.4783 23.6678 45.5303 23.7188 46.0247 23.7175L52.3973 23.703C52.8656 23.7018 52.9433 23.6249 52.9423 23.1649L52.9391 21.7073C52.9379 21.2471 52.8599 21.1705 52.3916 21.1716L50.9872 21.1747L50.9592 8.69635ZM58.9658 6.58123C58.7309 6.17257 58.7047 6.14714 58.2106 6.14824L56.1816 6.15287C55.6875 6.15406 55.6357 6.20528 55.6368 6.69102L55.6736 23.1585C55.6748 23.6443 55.7268 23.6953 56.2209 23.6942L58.1718 23.6897C58.6399 23.6885 58.7177 23.6117 58.7168 23.1515L58.6972 14.4066C58.6942 13.0768 58.6942 13.0768 58.6121 11.2869C59.0572 12.5134 59.4231 13.3307 60.285 14.9142L64.7775 23.1885C65.0387 23.6228 65.0908 23.6736 65.5589 23.6725L67.2236 23.6688C67.718 23.6676 67.7698 23.6165 67.7687 23.1307L67.7319 6.66318C67.7307 6.1774 67.6787 6.1264 67.1843 6.12747L65.2334 6.13198C64.7654 6.13317 64.6875 6.20993 64.6886 6.67016L64.7068 14.8015C64.7089 15.7734 64.7097 16.0801 64.7659 18.0232C64.3207 16.6946 63.6932 15.2131 63.0924 14.0892L58.9658 6.58123ZM72.3865 6.11583C71.9183 6.11703 71.8404 6.19379 71.8414 6.65399L71.8783 23.1215C71.8792 23.5817 71.9575 23.6581 72.4258 23.6572L76.5094 23.6478C78.9805 23.6422 79.7087 23.5382 80.7478 22.9988C82.9824 21.8942 84.043 19.2325 84.0331 14.8856C84.0214 9.61812 82.4806 6.85991 79.1756 6.25407C78.473 6.12771 78.239 6.10267 76.4701 6.10679L72.3865 6.11583ZM75.41 8.89604L76.3203 8.89395C77.569 8.89097 78.0374 8.99229 78.6365 9.39996C79.8088 10.1645 80.2805 11.7488 80.2879 15.0471C80.2942 17.911 79.9334 19.4205 79.0509 20.1899C78.5056 20.6769 77.7518 20.8575 76.3471 20.8608L75.4368 20.8629L75.41 8.89604ZM90.8348 8.86076L95.8809 8.84912C96.245 8.84823 96.3749 8.74586 96.4521 8.41313L96.9685 6.67326C96.9941 6.54538 97.0198 6.41753 97.0197 6.3408C97.0194 6.13619 96.8891 6.05976 96.4988 6.06071L87.8111 6.08053C87.317 6.08172 87.2649 6.1329 87.266 6.61868L87.3029 23.0862C87.3041 23.572 87.3562 23.623 87.8504 23.6217L96.33 23.6025C96.8243 23.6013 96.8761 23.5501 96.875 23.0643L96.8712 21.3509C96.87 20.8906 96.792 20.8142 96.3237 20.8151L90.8616 20.8277L90.8504 15.8416L95.1942 15.8318C95.6623 15.8306 95.7402 15.7537 95.7392 15.2934L95.7354 13.5803C95.7342 13.1199 95.6561 13.0435 95.1879 13.0445L90.8441 13.0544L90.8348 8.86076ZM102.526 14.3062L97.7584 22.5507C97.6548 22.7298 97.5986 22.8323 97.5989 22.9346C97.5992 23.088 97.7078 23.1645 98.0461 23.2404L100.545 23.9293C100.649 23.9547 100.805 23.98 100.857 23.9798C100.987 23.9795 101.065 23.9027 101.22 23.6465L103.655 18.9574C104.044 18.2661 104.069 18.2149 104.484 17.2679C104.797 18.0343 104.902 18.2387 105.268 18.9537L107.697 23.6575C107.854 23.9384 107.932 24.0148 108.062 24.0145C108.14 24.0144 108.14 24.0144 108.374 23.9371L110.922 23.3134C111.234 23.236 111.364 23.1332 111.363 22.9798C111.363 22.9031 111.337 22.8266 111.206 22.6222L106.35 14.3484L110.469 7.07718C110.547 6.94918 110.599 6.7956 110.599 6.71887C110.598 6.56541 110.468 6.46352 110.156 6.38748L107.709 5.70258C107.553 5.67742 107.449 5.65211 107.397 5.65211C107.241 5.65241 107.163 5.72938 107.033 6.03669L105.247 9.90182C104.937 10.5417 104.73 11.0794 104.497 11.8213C104.131 10.9015 104.027 10.6717 103.661 9.93095L101.701 6.09984C101.544 5.76794 101.492 5.71678 101.362 5.71705C101.31 5.7172 101.258 5.71732 101.18 5.74305L101.024 5.79459L98.4505 6.38855C98.1127 6.46609 97.9829 6.56854 97.9832 6.72197C97.9835 6.8244 97.9835 6.8244 98.1399 7.10532L102.526 14.3062ZM121.679 6.438C121.444 6.02934 121.418 6.00392 120.923 6.00502L118.894 6.00965C118.4 6.01084 118.348 6.06202 118.35 6.5478L118.386 23.0153C118.388 23.5011 118.44 23.5521 118.934 23.5509L120.885 23.5465C121.353 23.5453 121.43 23.4685 121.43 23.0083L121.41 14.263C121.407 12.9334 121.407 12.9334 121.325 11.1437C121.77 12.3702 122.136 13.1874 122.998 14.771L127.49 23.0456C127.751 23.4797 127.804 23.5307 128.272 23.5296L129.936 23.5258C130.431 23.5246 130.483 23.4735 130.481 22.9876L130.445 6.52043C130.444 6.03451 130.391 5.98365 129.897 5.98473L127.946 5.98923C127.478 5.99013 127.4 6.06719 127.401 6.52742L127.42 14.6588C127.422 15.6306 127.423 15.9374 127.479 17.8805C127.033 16.5519 126.406 15.0702 125.805 13.9464L121.679 6.438ZM139.936 5.52677C138.22 5.53073 136.79 6.07092 135.674 7.1218C134.091 8.65982 133.394 10.9371 133.402 14.6703C133.416 20.8585 135.53 23.9519 139.769 23.9421C144.087 23.9321 146.291 20.752 146.277 14.513C146.27 11.1633 145.64 8.78681 144.336 7.3322C143.345 6.20939 141.653 5.52292 139.936 5.52677ZM139.787 8.28877C141.659 8.28441 142.522 10.3282 142.532 14.8029C142.542 19.0476 141.636 21.172 139.841 21.1758C138.047 21.1799 137.158 19.0597 137.148 14.7641C137.139 10.5707 138.07 8.29265 139.787 8.28877ZM158.617 7.37619C158.695 7.22258 158.695 7.22258 158.694 7.17146C158.693 6.50664 155.777 5.56723 153.722 5.57201C150.237 5.57995 148.03 7.50282 148.037 10.5202C148.042 12.7959 148.981 13.9445 152.106 15.4714C154.293 16.5404 154.632 16.7442 155.075 17.229C155.414 17.5862 155.624 18.1994 155.625 18.7876C155.628 20.1427 154.771 20.9118 153.289 20.9151C152.144 20.9178 150.869 20.5117 149.306 19.6714C149.202 19.6206 149.124 19.5951 149.072 19.5953C148.968 19.5954 148.89 19.6724 148.838 19.826L147.985 22.0269C147.959 22.1292 147.933 22.257 147.933 22.3083C147.935 22.8963 151.266 23.8391 153.373 23.8343C156.754 23.8266 159.039 21.6691 159.032 18.4984C159.026 16.1204 157.904 14.5631 155.222 13.2652C152.931 12.1197 152.853 12.0944 152.488 11.865C151.785 11.4064 151.471 10.8958 151.47 10.2565C151.467 9.10576 152.376 8.38776 153.833 8.38436C154.665 8.38227 155.576 8.61055 156.435 9.04341C157.373 9.5014 157.373 9.5014 157.451 9.50113C157.529 9.50101 157.633 9.42402 157.685 9.32171L158.617 7.37619ZM165.617 20.2734L165.586 6.43997C165.585 5.97977 165.506 5.90319 165.038 5.9043L162.567 5.90991C162.073 5.9111 162.021 5.96228 162.022 6.44806L162.059 22.9156C162.06 23.4013 162.112 23.4523 162.606 23.4513L171.216 23.4316C171.632 23.4307 171.71 23.3536 171.813 22.97L172.277 20.8465C172.328 20.5906 172.328 20.5906 172.328 20.5396C172.328 20.335 172.171 20.2586 171.807 20.2595L165.617 20.2734ZM174.61 5.88248C174.116 5.88367 174.064 5.93486 174.065 6.42063L174.09 17.4926C174.094 19.4871 174.357 20.6626 174.984 21.6329C175.975 23.1393 177.642 23.8558 180.061 23.8503C182.349 23.845 183.961 23.2489 185.206 21.9675C186.27 20.8656 186.632 19.7141 186.627 17.464L186.602 6.39207C186.601 5.9063 186.549 5.85529 186.055 5.8564L183.714 5.86186C183.246 5.86275 183.168 5.93981 183.169 6.40001L183.194 17.523C183.199 20.0544 182.369 21.0792 180.314 21.0837C179.352 21.0858 178.649 20.8063 178.179 20.1937C177.762 19.6576 177.657 19.1721 177.653 17.4845L177.628 6.41252C177.627 5.95232 177.549 5.87585 177.081 5.87696L174.61 5.88248ZM199.584 7.28278C199.662 7.12917 199.662 7.12917 199.662 7.07804C199.66 6.41311 196.745 5.47382 194.689 5.47848C191.204 5.48654 188.998 7.40926 189.004 10.4264C189.009 12.7022 189.949 13.8507 193.073 15.3778C195.261 16.4467 195.599 16.6505 196.042 17.1353C196.381 17.4926 196.591 18.1058 196.592 18.6939C196.595 20.0492 195.738 20.8182 194.256 20.8216C193.111 20.8243 191.836 20.418 190.273 19.5778C190.169 19.5269 190.091 19.5015 190.039 19.5016C189.935 19.5018 189.857 19.5787 189.806 19.7323L188.952 21.9333C188.926 22.0356 188.901 22.1635 188.901 22.2148C188.902 22.8027 192.234 23.7456 194.34 23.7408C197.722 23.733 200.006 21.5756 199.999 18.4049C199.994 16.0269 198.872 14.4696 196.19 13.1717C193.898 12.0263 193.82 12.001 193.455 11.7717C192.752 11.3128 192.439 10.8023 192.437 10.1631C192.435 9.01237 193.343 8.29426 194.8 8.29098C195.632 8.28919 196.543 8.51717 197.403 8.94988C198.34 9.4079 198.34 9.4079 198.418 9.40775C198.496 9.40763 198.6 9.33063 198.652 9.22833L199.584 7.28278ZM194.499 1.69443L192.026 0.600631C191.791 0.473435 191.739 0.473435 191.635 0.473703C191.505 0.473972 191.427 0.550821 191.272 0.781279L190.779 1.57517C190.676 1.75432 190.624 1.85678 190.624 1.93348C190.624 2.03564 190.703 2.16352 190.833 2.23998L194.115 4.45688C194.193 4.50788 194.376 4.55876 194.48 4.5585C194.584 4.5582 194.766 4.50651 194.87 4.45523L198.064 2.30015C198.298 2.14615 198.376 2.04357 198.375 1.94142C198.375 1.83899 198.375 1.81342 198.218 1.55807L197.722 0.766506C197.592 0.562311 197.488 0.460303 197.384 0.460572C197.28 0.46084 197.124 0.512262 196.968 0.58941L194.499 1.69443Z" fill="#1B1918"/>
<path fill-rule="evenodd" clip-rule="evenodd" d="M18.8992 4.60023C20.5529 4.59653 21.9045 5.85516 21.9078 7.40248C21.9114 8.94938 20.5654 10.2143 18.9117 10.218C17.2579 10.2218 15.9064 8.9632 15.9028 7.41615C15.8994 5.86883 17.2453 4.60405 18.8992 4.60023Z" fill="white"/>
<path fill-rule="evenodd" clip-rule="evenodd" d="M23.9817 6.93104C25.2514 6.92805 26.2892 7.90295 26.2919 9.10115C26.2946 10.2993 25.2611 11.2789 23.9914 11.2818C23.0487 11.2839 22.2344 10.7466 21.8761 9.97965C22.4651 9.47092 22.8331 8.74959 22.8313 7.95193C22.8307 7.71974 22.799 7.49378 22.7397 7.27813C23.0983 7.05919 23.5244 6.93208 23.9817 6.93104Z" fill="white"/>
<path fill-rule="evenodd" clip-rule="evenodd" d="M26.5961 24.4527C26.6592 24.6279 26.599 24.6344 26.6001 25.1912C26.6013 25.748 25.64 26.8591 25.1317 26.8603C24.6235 26.8615 24.7628 26.8923 24.665 26.8743L22.9722 26.8366L23.0307 23.5211L23.0373 23.4731L23.0542 23.4155L23.134 23.2465L23.2516 23.0199L23.7823 22.2103L23.765 14.4725C23.51 13.7953 23.1905 13.1722 22.9087 12.9148C24.5441 12.2274 26.6034 13.0367 27.1224 14.6299L27.1127 19.5513L26.5772 20.2832L26.5961 24.4527Z" fill="white"/>
<path fill-rule="evenodd" clip-rule="evenodd" d="M13.0945 28.0848C13.006 28.099 12.9138 28.107 12.8196 28.1072C12.1125 28.1087 11.5348 27.6963 11.5337 27.1889C11.5336 27.1625 11.5355 27.1363 11.5385 27.1104L11.5281 27.0905L11.1323 20.6588L10.3639 19.2745L10.4232 14.2078C10.7084 13.1926 12.2485 12.2003 13.347 12.1978C14.4455 12.1954 14.6223 12.3373 15.1315 12.5787C14.7356 12.9956 14.3902 13.7955 14.1472 14.8264L14.1307 22.1108L14.8375 23.0571L14.8372 23.0572C14.8471 23.068 14.8571 23.0792 14.8668 23.0903L14.8778 28.0492L13.0945 28.0848Z" fill="white"/>
<path fill-rule="evenodd" clip-rule="evenodd" d="M22.4507 29.4189C22.644 31.3076 20.7781 32.4237 19.0983 32.4273C17.2442 32.4315 15.7291 31.1757 15.7255 29.632C15.7253 29.5381 15.7316 29.4448 15.7425 29.3531L15.7422 29.2088C15.7217 29.3212 15.702 29.5928 15.7196 29.508L15.7963 22.7736L15.0203 21.7465L15.0057 15.2529H15.0093C15.0328 13.1852 16.834 11.5026 19.0436 11.4976C21.2536 11.4925 23.0625 13.1669 23.0953 15.2344L23.1037 15.2344L23.1043 15.4727C23.112 15.556 23.1163 15.6408 23.1165 15.7254C23.1167 15.81 23.1128 15.8931 23.1054 15.9762L23.0704 21.9982L22.347 23.1065L22.4507 29.4189Z" fill="white"/>
<path fill-rule="evenodd" clip-rule="evenodd" d="M13.5302 6.3014C14.1042 6.3002 14.6357 6.46586 15.0661 6.74688C14.9556 7.04004 14.8956 7.35541 14.8964 7.68328C14.8982 8.46619 15.2452 9.17506 15.8019 9.68406C15.3628 10.3914 14.5137 10.8738 13.5404 10.8761C12.1169 10.8793 10.9537 9.85448 10.9508 8.59462C10.9481 7.33485 12.1067 6.30468 13.5302 6.3014Z" fill="white"/>
<path fill-rule="evenodd" clip-rule="evenodd" d="M18.5135 0.000658105C28.7334 -0.0223819 37.0878 8.29475 37.1117 18.5156C37.1356 28.7361 28.8176 37.0914 18.5977 37.1153C8.3777 37.1362 0.0233271 28.82 4.83758e-05 18.5995C-0.0231408 8.37891 8.29354 0.0239368 18.5135 0.000658105Z" fill="#E30016"/>
<path fill-rule="evenodd" clip-rule="evenodd" d="M18.753 4.78529C20.3898 4.78165 21.7275 6.02738 21.7309 7.55885C21.7345 9.08994 20.4022 10.3419 18.7654 10.3456C17.1285 10.3493 15.7907 9.10361 15.7873 7.57241C15.7839 6.04091 17.116 4.78908 18.753 4.78529Z" fill="white"/>
<path fill-rule="evenodd" clip-rule="evenodd" d="M23.7817 7.09229C25.0385 7.08931 26.0656 8.05424 26.0683 9.24017C26.071 10.4261 25.0481 11.3957 23.7914 11.3985C22.8583 11.4006 22.0523 10.8688 21.6976 10.1097C22.2806 9.60619 22.6449 8.89221 22.6431 8.10273C22.6425 7.8729 22.6112 7.64928 22.5525 7.4358C22.9073 7.21913 23.3292 7.09331 23.7817 7.09229Z" fill="white"/>
<path fill-rule="evenodd" clip-rule="evenodd" d="M26.1036 25.163C26.1036 25.1754 26.1036 25.1877 26.1027 25.2002C25.999 26.5918 23.7514 27.1332 22.6118 27.0346L22.5706 23.5102L22.5825 23.4489L23.3144 22.2128L23.2973 14.5542C23.0449 13.8838 22.7287 13.2671 22.4498 13.0124C24.0684 12.332 26.1066 13.133 26.6203 14.71L26.6106 19.5809L26.3532 19.9271L26.0806 20.3053C26.0879 21.925 26.1 23.5482 26.1036 25.163Z" fill="white"/>
<path fill-rule="evenodd" clip-rule="evenodd" d="M11.4471 26.8134L11.2983 20.6792L10.4911 19.4025L10.5965 14.2474C10.8788 13.2426 12.1696 12.3072 13.2569 12.3047C14.3442 12.3023 14.5191 12.4428 15.0231 12.6818C14.6313 13.0943 14.2894 13.886 14.0489 14.9064L14.0326 22.1162L14.7322 23.0528L14.7319 23.0529C14.7416 23.0636 14.7515 23.0746 14.7611 23.0857L14.7052 28.1944C13.3792 28.136 11.7121 28.527 11.4471 26.8134Z" fill="white"/>
<path fill-rule="evenodd" clip-rule="evenodd" d="M21.8478 29.3502C22.0056 30.9858 20.6921 32.0359 19.3111 32.2755C19.1135 32.3097 18.9149 32.3274 18.7189 32.3279C16.9884 32.3321 15.5742 31.0892 15.5709 29.5613C15.5689 28.5473 15.616 24.7312 15.637 22.7731L14.9126 21.7565L14.8991 15.3295H14.9024C14.9243 13.283 16.6056 11.6175 18.6679 11.6127C20.7306 11.6077 22.4187 13.2649 22.4494 15.3113L22.4572 15.3113L22.4578 15.5472C22.4651 15.6296 22.4691 15.7135 22.4693 15.7972C22.4694 15.881 22.4658 15.9632 22.4589 16.0455L22.4262 22.0061L21.7511 23.103L21.8478 29.3502Z" fill="white"/>
<path fill-rule="evenodd" clip-rule="evenodd" d="M13.4377 6.46851C14.0058 6.46732 14.5319 6.63128 14.9579 6.90943C14.8485 7.19958 14.7891 7.51173 14.7898 7.83622C14.7916 8.61114 15.1351 9.31275 15.6862 9.81653C15.2515 10.5167 14.4111 10.9942 13.4478 10.9964C12.0389 10.9996 10.8875 9.98521 10.8847 8.73825C10.882 7.49134 12.0288 6.47174 13.4377 6.46851Z" fill="white"/>
<path fill-rule="evenodd" clip-rule="evenodd" d="M46.9988 31.8325H47.4476C48.6618 31.8325 49.4539 31.0493 49.4539 29.8612C49.4539 29.2365 49.1988 28.7085 48.785 28.4533C48.4946 28.2772 48.1074 28.207 47.4035 28.207H45.978C45.8107 28.207 45.7932 28.2245 45.7932 28.3918V34.0589C45.7932 34.2261 45.8107 34.2436 45.978 34.2436H46.8139C46.9723 34.2436 46.9988 34.2173 46.9988 34.0589V31.8325ZM46.9988 30.838V29.1045H47.3419C48.0547 29.1045 48.2924 29.307 48.2924 29.9316C48.2924 30.6005 48.0195 30.838 47.2452 30.838H46.9988ZM55.1914 29.1661H56.8985C57.0216 29.1661 57.0657 29.1309 57.0921 29.0166L57.268 28.4181C57.2768 28.374 57.2857 28.3302 57.2857 28.3038C57.2857 28.2334 57.2416 28.207 57.1096 28.207H54.1705C54.0033 28.207 53.9858 28.2245 53.9858 28.3918V34.0589C53.9858 34.2261 54.0033 34.2436 54.1705 34.2436H57.0391C57.2064 34.2436 57.2241 34.2261 57.2241 34.0589V33.4693C57.2241 33.3109 57.1978 33.2845 57.0391 33.2845H55.1914V31.5686H56.6608C56.8192 31.5686 56.8456 31.5423 56.8456 31.3836V30.7942C56.8456 30.6359 56.8192 30.6093 56.6608 30.6093H55.1914V29.1661ZM64.5366 31.6212C65.2316 31.2515 65.522 30.75 65.522 29.9405C65.522 29.2188 65.2757 28.7174 64.7742 28.4358C64.4661 28.2686 64.1317 28.207 63.4718 28.207H62.0374C61.8702 28.207 61.8527 28.2245 61.8527 28.3918V34.0323C61.8527 34.2259 61.8702 34.2434 62.0374 34.2434H62.847C63.0053 34.2434 63.0317 34.2171 63.0317 34.0587V31.7706H63.4982L64.739 34.2786C64.7917 34.3754 64.8181 34.4018 64.8622 34.4018C64.8885 34.4018 64.8885 34.4018 64.9678 34.3754L65.7508 34.1555C65.8565 34.1291 65.8917 34.0939 65.8917 34.0498C65.8917 34.0146 65.8742 33.9619 65.8476 33.9178L64.5366 31.6212ZM63.0317 30.838V29.1045H63.375C64.0878 29.1045 64.3253 29.307 64.3253 29.9316C64.3253 30.6005 64.0526 30.838 63.2782 30.838H63.0317ZM73.4593 28.7085C73.4859 28.6558 73.4859 28.6558 73.4859 28.6381C73.4859 28.4093 72.5002 28.0837 71.8052 28.0837C70.6259 28.0837 69.8779 28.7437 69.8779 29.7821C69.8779 30.5653 70.1946 30.9611 71.2508 31.4892C71.9899 31.8589 72.1042 31.9293 72.2539 32.0963C72.3682 32.2197 72.4386 32.4308 72.4386 32.6332C72.4386 33.0995 72.1482 33.3635 71.6466 33.3635C71.2594 33.3635 70.8283 33.2228 70.3003 32.9325C70.2651 32.9147 70.2387 32.9059 70.2212 32.9059C70.186 32.9059 70.1594 32.9325 70.1419 32.9852L69.8515 33.742C69.8427 33.777 69.8338 33.8211 69.8338 33.8388C69.8338 34.0411 70.9604 34.3667 71.6731 34.3667C72.817 34.3667 73.5913 33.6275 73.5913 32.5364C73.5913 31.718 73.213 31.1813 72.3066 30.7325C71.5323 30.3365 71.5059 30.3276 71.3828 30.2484C71.1451 30.09 71.0394 29.9141 71.0394 29.6942C71.0394 29.2981 71.3475 29.0516 71.8402 29.0516C72.1219 29.0516 72.4298 29.1309 72.7201 29.2804C73.0369 29.439 73.0369 29.439 73.0635 29.439C73.0898 29.439 73.1251 29.4124 73.1426 29.3772L73.4593 28.7085ZM80.0594 28.0573C79.4786 28.0573 78.9944 28.2422 78.6161 28.6028C78.0794 29.1309 77.8417 29.9141 77.8417 31.1988C77.8417 33.3283 78.5545 34.393 79.9889 34.393C81.4497 34.393 82.1975 33.3019 82.1975 31.1546C82.1975 30.002 81.9864 29.1835 81.5465 28.6821C81.212 28.2949 80.6401 28.0573 80.0594 28.0573ZM80.0064 29.0078C80.6401 29.0078 80.9305 29.7117 80.9305 31.2515C80.9305 32.7123 80.6224 33.4428 80.0153 33.4428C79.4082 33.4428 79.1089 32.7123 79.1089 31.234C79.1089 29.791 79.4257 29.0078 80.0064 29.0078ZM87.9349 28.3566C87.8558 28.2157 87.847 28.207 87.6797 28.207H86.9933C86.8263 28.207 86.8085 28.2245 86.8085 28.3918V34.0589C86.8085 34.2261 86.8263 34.2436 86.9933 34.2436H87.6534C87.8117 34.2436 87.8381 34.2173 87.8381 34.0589V31.0494C87.8381 30.5918 87.8381 30.5918 87.8117 29.9758C87.9615 30.3982 88.0846 30.6797 88.375 31.2253L89.8885 34.0764C89.9764 34.2261 89.9941 34.2436 90.1525 34.2436H90.7156C90.8828 34.2436 90.9005 34.2261 90.9005 34.0589V28.3909C90.9005 28.2236 90.8828 28.2061 90.7156 28.2061H90.0557C89.8973 28.2061 89.8708 28.2325 89.8708 28.3909V31.189C89.8708 31.5235 89.8708 31.6292 89.8885 32.2979C89.739 31.8402 89.5277 31.3299 89.3252 30.9427L87.9349 28.3566ZM98.31 32.6509L98.6883 34.0942C98.7235 34.2348 98.7412 34.2436 98.8907 34.2436H99.8498C99.9818 34.2436 100.026 34.2173 100.026 34.1469C100.026 34.1205 100.017 34.0942 99.9995 34.0326L98.2659 28.3568C98.222 28.2159 98.2132 28.2073 98.0723 28.2073H97.1573C97.0164 28.2073 97.0075 28.2159 96.9637 28.3568L95.23 34.0326C95.2037 34.1028 95.2037 34.1116 95.2037 34.1469C95.2037 34.2173 95.2478 34.2436 95.3795 34.2436H96.2509C96.4004 34.2436 96.4093 34.2348 96.4445 34.0942L96.8228 32.6509H98.31ZM96.9548 31.8238L97.3068 30.3189C97.4211 29.8438 97.4563 29.6414 97.5356 29.131C97.6499 29.7997 97.6762 29.9581 97.7555 30.3189L98.0811 31.8238H96.9548ZM99.1548 27.2126C99.269 27.1862 99.3043 27.151 99.3043 27.0983C99.3043 27.0719 99.2954 27.0542 99.269 26.9837L99.0316 26.4296C98.9875 26.315 98.9612 26.2887 98.9171 26.2887C98.8819 26.2887 98.8819 26.2887 98.7851 26.3328L97.2452 27.0453C97.1396 27.0983 97.1132 27.1246 97.1132 27.1687C97.1132 27.1951 97.1221 27.2303 97.1484 27.283L97.2627 27.5734C97.3157 27.6965 97.3332 27.7143 97.3859 27.7143C97.4125 27.7143 97.4124 27.7143 97.5004 27.6879L99.1548 27.2126ZM105.64 33.1525V28.3917C105.64 28.2333 105.614 28.207 105.455 28.207H104.619C104.452 28.207 104.435 28.2245 104.435 28.3917V34.0588C104.435 34.2261 104.452 34.2436 104.619 34.2436H107.532C107.673 34.2436 107.699 34.2172 107.734 34.0852L107.893 33.3547C107.91 33.2667 107.91 33.2667 107.91 33.2493C107.91 33.1788 107.858 33.1525 107.734 33.1525H105.64ZM113.322 28.3565C113.243 28.2156 113.234 28.207 113.067 28.207H112.381C112.214 28.207 112.196 28.2245 112.196 28.3917V34.0588C112.196 34.2261 112.214 34.2436 112.381 34.2436H113.041C113.199 34.2436 113.225 34.2172 113.225 34.0588V31.0493C113.225 30.5917 113.225 30.5917 113.199 29.9758C113.349 30.3981 113.472 30.6797 113.762 31.2252L115.276 34.0763C115.364 34.2261 115.381 34.2436 115.54 34.2436H116.103C116.27 34.2436 116.288 34.2261 116.288 34.0588V28.3908C116.288 28.2236 116.27 28.2061 116.103 28.2061H115.443C115.285 28.2061 115.258 28.2324 115.258 28.3908V31.189C115.258 31.5235 115.258 31.6291 115.276 32.2978C115.126 31.8402 114.915 31.3299 114.713 30.9427L113.322 28.3565ZM123.697 32.6508L124.076 34.0941C124.111 34.2347 124.129 34.2436 124.278 34.2436H125.237C125.369 34.2436 125.413 34.2172 125.413 34.1468C125.413 34.1204 125.404 34.0941 125.387 34.0325L123.653 28.3567C123.609 28.2158 123.6 28.2072 123.46 28.2072H122.545C122.404 28.2072 122.395 28.2158 122.351 28.3567L120.617 34.0325C120.591 34.1027 120.591 34.1116 120.591 34.1468C120.591 34.2172 120.635 34.2436 120.767 34.2436H121.638C121.788 34.2436 121.797 34.2347 121.832 34.0941L122.21 32.6508H123.697ZM122.342 31.8237L122.694 30.3189C122.808 29.8438 122.844 29.6413 122.923 29.131C123.037 29.7997 123.064 29.9581 123.143 30.3189L123.468 31.8237H122.342ZM139.466 32.6508L139.845 34.0941C139.88 34.2347 139.897 34.2436 140.047 34.2436H141.006C141.138 34.2436 141.182 34.2172 141.182 34.1468C141.182 34.1204 141.173 34.0941 141.156 34.0325L139.422 28.3567C139.378 28.2158 139.369 28.2072 139.229 28.2072H138.314C138.173 28.2072 138.164 28.2158 138.12 28.3567L136.386 34.0325C136.36 34.1027 136.36 34.1116 136.36 34.1468C136.36 34.2172 136.404 34.2436 136.536 34.2436H137.407C137.557 34.2436 137.566 34.2347 137.601 34.0941L137.979 32.6508H139.466ZM138.111 31.8237L138.463 30.3189C138.577 29.8438 138.613 29.6413 138.692 29.131C138.806 29.7997 138.832 29.9581 138.912 30.3189L139.237 31.8237H138.111ZM148.231 33.2668C148.028 33.3636 147.835 33.4077 147.624 33.4077C147.236 33.4077 146.867 33.2052 146.708 32.9148C146.532 32.5981 146.427 31.938 146.427 31.1814C146.427 30.3893 146.559 29.7558 146.796 29.395C146.963 29.1573 147.272 29.0078 147.615 29.0078C147.958 29.0078 148.169 29.0783 148.706 29.3687C148.732 29.3861 148.759 29.395 148.785 29.395C148.803 29.395 148.829 29.3773 148.847 29.3509L149.172 28.6911C149.181 28.6734 149.19 28.647 149.19 28.6206C149.19 28.5591 149.163 28.5327 149.023 28.4446C148.627 28.1983 148.108 28.0574 147.562 28.0574C146.013 28.0574 145.195 29.1485 145.195 31.234C145.195 33.346 145.969 34.393 147.527 34.393C148.143 34.393 148.75 34.2347 149.172 33.962C149.304 33.8738 149.313 33.8564 149.313 33.7244V31.2604C149.313 31.102 149.295 31.0757 149.128 31.0757H147.571C147.404 31.0757 147.386 31.102 147.386 31.2604V31.85C147.386 32.0084 147.412 32.0347 147.571 32.0347H148.231V33.2668ZM155.315 29.1662H157.022C157.145 29.1662 157.189 29.131 157.215 29.0167L157.391 28.4182C157.4 28.3741 157.409 28.3302 157.409 28.3039C157.409 28.2334 157.365 28.2071 157.233 28.2071H154.294C154.126 28.2071 154.109 28.2246 154.109 28.3918V34.059C154.109 34.2262 154.126 34.2437 154.294 34.2437H157.162C157.33 34.2437 157.347 34.2262 157.347 34.059V33.4693C157.347 33.3109 157.321 33.2846 157.162 33.2846H155.315V31.5687H156.784C156.942 31.5687 156.969 31.5423 156.969 31.3837V30.7943C156.969 30.6359 156.942 30.6093 156.784 30.6093H155.315V29.1662ZM162.996 28.3566C162.917 28.2157 162.909 28.2071 162.741 28.2071H162.055C161.888 28.2071 161.87 28.2246 161.87 28.3918V34.059C161.87 34.2262 161.888 34.2437 162.055 34.2437H162.715C162.873 34.2437 162.9 34.2173 162.9 34.059V31.0495C162.9 30.5919 162.9 30.5919 162.873 29.9759C163.023 30.3983 163.146 30.6798 163.437 31.2253L164.95 34.0765C165.038 34.2262 165.056 34.2437 165.214 34.2437H165.777C165.944 34.2437 165.962 34.2262 165.962 34.059V28.3909C165.962 28.2237 165.944 28.2062 165.777 28.2062H165.117C164.959 28.2062 164.932 28.2325 164.932 28.3909V31.1891C164.932 31.5236 164.932 31.6292 164.95 32.2979C164.801 31.8403 164.589 31.33 164.387 30.9428L162.996 28.3566ZM172.597 29.2541H173.679C173.811 29.2541 173.847 29.2366 173.873 29.1046L174.058 28.4093C174.066 28.383 174.075 28.3302 174.075 28.3039C174.075 28.2334 174.031 28.2071 173.899 28.2071H170.265C170.098 28.2071 170.08 28.2334 170.08 28.3918V29.0782C170.08 29.2366 170.098 29.2541 170.265 29.2541H171.374V34.0588C171.374 34.226 171.391 34.2435 171.559 34.2435H172.412C172.579 34.2435 172.597 34.226 172.597 34.0588L172.597 29.2541ZM178.202 28.2071C178.035 28.2071 178.018 28.2246 178.018 28.3918V32.2021C178.018 32.8885 178.106 33.2931 178.317 33.6276C178.651 34.1468 179.214 34.3931 180.033 34.3931C180.807 34.3931 181.353 34.1909 181.775 33.7508C182.136 33.3725 182.259 32.9764 182.259 32.2021V28.3903C182.259 28.2231 182.241 28.2056 182.074 28.2056H181.282C181.124 28.2056 181.098 28.2319 181.098 28.3903V32.2182C181.098 33.0893 180.816 33.4413 180.121 33.4413C179.795 33.4413 179.558 33.3445 179.399 33.1332C179.259 32.9484 179.223 32.7812 179.223 32.2004V28.3917C179.223 28.2333 179.197 28.207 179.038 28.207L178.202 28.2071ZM181.669 27.2126C181.784 27.1862 181.819 27.151 181.819 27.0983C181.819 27.0719 181.81 27.0542 181.784 26.9837L181.546 26.4296C181.502 26.315 181.476 26.2887 181.432 26.2887C181.397 26.2887 181.397 26.2887 181.3 26.3328L179.76 27.0453C179.654 27.0983 179.628 27.1246 179.628 27.1687C179.628 27.1951 179.637 27.2303 179.663 27.283L179.778 27.5734C179.83 27.6965 179.848 27.7143 179.901 27.7143C179.927 27.7143 179.927 27.7143 180.015 27.6879L181.669 27.2126ZM189.871 31.6212C190.566 31.2515 190.856 30.75 190.856 29.9404C190.856 29.2188 190.61 28.7173 190.109 28.4358C189.801 28.2686 189.466 28.207 188.806 28.207H187.372C187.205 28.207 187.187 28.2245 187.187 28.3917V34.0323C187.187 34.2259 187.205 34.2434 187.372 34.2434H188.181C188.34 34.2434 188.366 34.217 188.366 34.0587V31.7706H188.833L190.073 34.2786C190.126 34.3754 190.152 34.4018 190.197 34.4018C190.223 34.4018 190.223 34.4018 190.302 34.3754L191.085 34.1555C191.191 34.1291 191.226 34.0939 191.226 34.0498C191.226 34.0146 191.209 33.9619 191.182 33.9178L189.871 31.6212ZM188.366 30.838V29.1045H188.709C189.422 29.1045 189.66 29.307 189.66 29.9316C189.66 30.6005 189.387 30.838 188.613 30.838H188.366ZM198.099 32.6507L198.477 34.094C198.512 34.2346 198.53 34.2435 198.679 34.2435H199.638C199.771 34.2435 199.815 34.2171 199.815 34.1467C199.815 34.1203 199.806 34.094 199.788 34.0324L198.055 28.3566C198.011 28.2157 198.002 28.2071 197.861 28.2071H196.946C196.805 28.2071 196.796 28.2157 196.752 28.3566L195.019 34.0324C194.992 34.1026 194.992 34.1115 194.992 34.1467C194.992 34.2171 195.036 34.2435 195.168 34.2435H196.04C196.189 34.2435 196.198 34.2346 196.233 34.094L196.611 32.6507H198.099ZM196.744 31.8236L197.095 30.3188C197.21 29.8436 197.245 29.6412 197.324 29.1309C197.439 29.7996 197.465 29.9579 197.544 30.3188L197.87 31.8236H196.744Z" fill="#1B1918"/>
</g>
<defs>
<clipPath id="clip0_1_8">
<rect width="200" height="37.1146" fill="white"/>
</clipPath>
</defs>
</svg>
