<?xml version="1.0" encoding="utf-8"?>
<!-- Generator: Adobe Illustrator 24.0.2, SVG Export Plug-In . SVG Version: 6.00 Build 0)  -->
<svg version="1.1" id="Layer_1" xmlns="http://www.w3.org/2000/svg" xmlns:xlink="http://www.w3.org/1999/xlink" x="0px" y="0px"
	 viewBox="0 0 433.34 78.79" style="enable-background:new 0 0 433.34 78.79;" xml:space="preserve">
<style type="text/css">
	.Arched_x0020_Green{fill:url(#SVGID_1_);stroke:#FFFFFF;stroke-width:0.25;stroke-miterlimit:1;}
	.st0{fill:#466EA5;}
	.st1{fill-rule:evenodd;clip-rule:evenodd;fill:#466EA5;}
	.st2{fill-rule:evenodd;clip-rule:evenodd;fill:#6390C6;}
	.st3{fill-rule:evenodd;clip-rule:evenodd;fill:#6E8F82;}
	.st4{fill-rule:evenodd;clip-rule:evenodd;fill:#E77C22;}
</style>
<linearGradient id="SVGID_1_" gradientUnits="userSpaceOnUse" x1="36" y1="432" x2="36.7071" y2="431.2929">
	<stop  offset="0" style="stop-color:#1EAB4B"/>
	<stop  offset="0.9831" style="stop-color:#19361A"/>
</linearGradient>
<g>
	<g>
		<path class="st0" d="M110.81,26.46l9.95,26.53l9.99-26.53h5.75v31.57h-3.98V31.77h-0.09l-9.86,26.26h-3.58l-9.86-26.26h-0.09
			v26.26h-3.98V26.46H110.81z"/>
		<path class="st0" d="M162.33,57.94c-0.65,0.38-1.55,0.58-2.7,0.58c-0.97,0-1.75-0.27-2.32-0.82c-0.57-0.54-0.86-1.44-0.86-2.67
			c-1.03,1.24-2.23,2.13-3.6,2.67c-1.37,0.55-2.85,0.82-4.44,0.82c-1.03,0-2.01-0.12-2.94-0.35c-0.93-0.24-1.73-0.6-2.41-1.11
			c-0.68-0.5-1.22-1.16-1.61-1.97c-0.4-0.81-0.6-1.79-0.6-2.94c0-1.3,0.22-2.36,0.66-3.18c0.44-0.82,1.02-1.5,1.75-2.01
			c0.72-0.51,1.55-0.91,2.48-1.17c0.93-0.27,1.88-0.49,2.85-0.66c1.03-0.21,2.01-0.36,2.94-0.46c0.93-0.1,1.75-0.25,2.45-0.44
			s1.27-0.47,1.68-0.84c0.41-0.37,0.62-0.91,0.62-1.61c0-0.83-0.15-1.49-0.46-1.99c-0.31-0.5-0.71-0.88-1.19-1.15
			c-0.49-0.27-1.03-0.44-1.64-0.53c-0.6-0.09-1.2-0.13-1.79-0.13c-1.59,0-2.92,0.3-3.98,0.91s-1.64,1.75-1.72,3.43h-3.76
			c0.06-1.41,0.35-2.61,0.88-3.58c0.53-0.97,1.24-1.76,2.12-2.37c0.88-0.6,1.89-1.04,3.03-1.3c1.13-0.27,2.35-0.4,3.65-0.4
			c1.03,0,2.06,0.07,3.07,0.22c1.02,0.15,1.94,0.45,2.76,0.9c0.82,0.46,1.49,1.1,1.99,1.92c0.5,0.82,0.75,1.9,0.75,3.22v11.74
			c0,0.88,0.05,1.53,0.15,1.94c0.1,0.41,0.45,0.62,1.04,0.62c0.32,0,0.71-0.06,1.15-0.18V57.94z M156.23,46.23
			c-0.47,0.35-1.09,0.61-1.86,0.77c-0.77,0.16-1.57,0.29-2.41,0.4s-1.69,0.22-2.54,0.35c-0.86,0.13-1.62,0.34-2.3,0.64
			c-0.68,0.29-1.23,0.71-1.66,1.25s-0.64,1.28-0.64,2.22c0,0.62,0.13,1.14,0.38,1.56c0.25,0.43,0.57,0.77,0.97,1.03
			s0.86,0.46,1.39,0.57c0.53,0.12,1.09,0.18,1.68,0.18c1.24,0,2.3-0.17,3.18-0.51s1.61-0.76,2.17-1.28
			c0.56-0.51,0.97-1.07,1.24-1.67c0.27-0.6,0.4-1.17,0.4-1.69V46.23z"/>
		<path class="st0" d="M169.36,35.17v3.63h0.09c1.56-2.77,4.04-4.16,7.43-4.16c1.5,0,2.76,0.21,3.76,0.62
			c1,0.41,1.81,0.99,2.43,1.72c0.62,0.74,1.05,1.61,1.3,2.63c0.25,1.02,0.38,2.14,0.38,3.38v15.03h-3.76V42.56
			c0-1.42-0.41-2.54-1.24-3.36c-0.83-0.83-1.96-1.24-3.4-1.24c-1.15,0-2.14,0.18-2.98,0.53c-0.84,0.35-1.54,0.85-2.1,1.5
			c-0.56,0.65-0.98,1.41-1.26,2.28c-0.28,0.87-0.42,1.82-0.42,2.85v12.91h-3.76V35.17H169.36z"/>
		<path class="st0" d="M193.45,35.17v3.09h0.09c0.62-1.27,1.59-2.19,2.92-2.76c1.33-0.57,2.79-0.86,4.38-0.86
			c1.77,0,3.31,0.32,4.62,0.97c1.31,0.65,2.4,1.52,3.27,2.63c0.87,1.11,1.53,2.38,1.97,3.82c0.44,1.44,0.66,2.98,0.66,4.6
			c0,1.62-0.21,3.15-0.64,4.6c-0.43,1.45-1.08,2.71-1.95,3.78c-0.87,1.08-1.96,1.92-3.27,2.54c-1.31,0.62-2.84,0.93-4.58,0.93
			c-0.56,0-1.19-0.06-1.88-0.18c-0.69-0.12-1.38-0.31-2.06-0.58c-0.68-0.26-1.32-0.63-1.92-1.08c-0.6-0.46-1.11-1.02-1.52-1.7h-0.09
			v11.76h-3.76V35.17H193.45z M206.95,43.29c-0.28-1.02-0.71-1.92-1.28-2.72c-0.57-0.8-1.31-1.43-2.21-1.9
			c-0.9-0.47-1.95-0.71-3.16-0.71c-1.27,0-2.34,0.25-3.23,0.75c-0.88,0.5-1.61,1.16-2.17,1.97c-0.56,0.81-0.97,1.73-1.22,2.76
			c-0.25,1.03-0.38,2.08-0.38,3.14c0,1.12,0.13,2.2,0.4,3.25c0.27,1.05,0.69,1.97,1.26,2.76c0.57,0.79,1.32,1.44,2.23,1.92
			c0.91,0.49,2.02,0.73,3.32,0.73s2.38-0.25,3.25-0.75c0.87-0.5,1.57-1.16,2.1-1.99c0.53-0.83,0.91-1.77,1.15-2.83
			c0.24-1.06,0.35-2.15,0.35-3.27C207.37,45.34,207.23,44.3,206.95,43.29z"/>
		<path class="st0" d="M214.7,41.92c0.47-1.46,1.18-2.73,2.12-3.8c0.94-1.08,2.11-1.92,3.49-2.54c1.38-0.62,2.98-0.93,4.77-0.93
			c1.83,0,3.43,0.31,4.8,0.93c1.37,0.62,2.53,1.47,3.47,2.54c0.94,1.08,1.65,2.34,2.12,3.8c0.47,1.46,0.71,3.03,0.71,4.71
			s-0.24,3.24-0.71,4.69c-0.47,1.44-1.18,2.7-2.12,3.78c-0.94,1.08-2.1,1.92-3.47,2.52c-1.37,0.6-2.97,0.91-4.8,0.91
			c-1.8,0-3.39-0.3-4.77-0.91c-1.39-0.6-2.55-1.44-3.49-2.52c-0.94-1.08-1.65-2.33-2.12-3.78c-0.47-1.44-0.71-3.01-0.71-4.69
			S214.23,43.37,214.7,41.92z M218.53,50.32c0.37,1.08,0.88,1.97,1.53,2.7c0.65,0.72,1.41,1.27,2.28,1.66
			c0.87,0.38,1.79,0.58,2.76,0.58s1.89-0.19,2.76-0.58c0.87-0.38,1.63-0.93,2.28-1.66c0.65-0.72,1.16-1.62,1.53-2.7
			c0.37-1.08,0.55-2.31,0.55-3.69c0-1.38-0.18-2.62-0.55-3.69c-0.37-1.08-0.88-1.98-1.53-2.72c-0.65-0.74-1.41-1.3-2.28-1.68
			c-0.87-0.38-1.79-0.57-2.76-0.57s-1.89,0.19-2.76,0.57c-0.87,0.38-1.63,0.94-2.28,1.68c-0.65,0.74-1.16,1.64-1.53,2.72
			c-0.37,1.08-0.55,2.31-0.55,3.69C217.97,48.01,218.16,49.24,218.53,50.32z"/>
		<path class="st0" d="M258.16,58.03l-4.64-18.17h-0.09l-4.6,18.17h-4.07l-7.34-22.86h4.16l5.17,18.7h0.09l4.6-18.7h4.11l4.77,18.7
			h0.09l5.13-18.7h3.89l-7.29,22.86H258.16z"/>
		<path class="st0" d="M287.68,56.57c-1.71,1.3-3.86,1.95-6.46,1.95c-1.83,0-3.41-0.29-4.75-0.88c-1.34-0.59-2.47-1.42-3.38-2.48
			c-0.91-1.06-1.6-2.33-2.06-3.8c-0.46-1.47-0.71-3.08-0.77-4.82c0-1.74,0.26-3.33,0.8-4.77c0.53-1.44,1.27-2.7,2.23-3.76
			c0.96-1.06,2.09-1.89,3.4-2.48c1.31-0.59,2.75-0.88,4.31-0.88c2.03,0,3.72,0.42,5.06,1.26c1.34,0.84,2.42,1.91,3.23,3.21
			s1.37,2.71,1.68,4.24c0.31,1.53,0.43,2.99,0.38,4.38h-17.11c-0.03,1,0.09,1.95,0.35,2.85c0.27,0.9,0.69,1.7,1.28,2.39
			c0.59,0.69,1.34,1.25,2.25,1.66c0.91,0.41,1.99,0.62,3.23,0.62c1.59,0,2.9-0.37,3.91-1.11c1.02-0.74,1.69-1.86,2.01-3.36H291
			C290.5,53.34,289.39,55.27,287.68,56.57z M286.78,41.89c-0.34-0.8-0.8-1.48-1.37-2.06c-0.57-0.58-1.25-1.03-2.03-1.37
			c-0.78-0.34-1.64-0.51-2.59-0.51c-0.97,0-1.85,0.17-2.63,0.51c-0.78,0.34-1.45,0.8-2.01,1.39c-0.56,0.59-1,1.28-1.33,2.06
			c-0.33,0.78-0.52,1.61-0.58,2.5h13.13C287.31,43.53,287.12,42.69,286.78,41.89z"/>
		<path class="st0" d="M298.73,35.17v4.82h0.09c0.91-1.86,2.03-3.23,3.36-4.11c1.33-0.88,3.01-1.3,5.04-1.24v3.98
			c-1.5,0-2.79,0.21-3.85,0.62c-1.06,0.41-1.92,1.02-2.56,1.81c-0.65,0.8-1.12,1.76-1.42,2.9c-0.29,1.13-0.44,2.44-0.44,3.91v10.17
			h-3.76V35.17H298.73z"/>
		<path class="st0" d="M330.12,57.65c-1.83,0.72-3.67,1.08-5.53,1.08c-2.36,0-4.46-0.43-6.32-1.3c-1.86-0.87-3.43-2.04-4.73-3.51
			s-2.28-3.17-2.96-5.08c-0.68-1.92-1.02-3.91-1.02-5.97c0-2.3,0.32-4.49,0.95-6.57c0.63-2.08,1.58-3.9,2.83-5.46
			c1.25-1.56,2.81-2.81,4.69-3.74c1.87-0.93,4.06-1.39,6.57-1.39c1.71,0,3.32,0.2,4.84,0.6c1.52,0.4,2.87,1.02,4.07,1.88
			c1.19,0.86,2.2,1.94,3.01,3.25c0.81,1.31,1.36,2.9,1.66,4.75h-4.2c-0.21-1.21-0.59-2.25-1.15-3.12c-0.56-0.87-1.25-1.58-2.08-2.14
			c-0.83-0.56-1.76-0.98-2.81-1.26c-1.05-0.28-2.16-0.42-3.34-0.42c-1.92,0-3.56,0.38-4.93,1.15c-1.37,0.77-2.49,1.78-3.36,3.03
			c-0.87,1.25-1.51,2.68-1.92,4.29c-0.41,1.61-0.62,3.25-0.62,4.93c0,1.65,0.24,3.23,0.71,4.75c0.47,1.52,1.16,2.86,2.08,4.02
			c0.91,1.17,2.04,2.09,3.38,2.79c1.34,0.69,2.9,1.04,4.66,1.04c1.65,0,3.11-0.27,4.38-0.8c1.27-0.53,2.33-1.26,3.21-2.19
			c0.87-0.93,1.53-2.02,1.97-3.27c0.44-1.25,0.63-2.6,0.57-4.04h-10.08v-3.54h13.84v16.62h-2.65l-1.11-3.93
			C333.48,55.75,331.95,56.93,330.12,57.65z"/>
		<path class="st0" d="M347.07,35.17v4.82h0.09c0.91-1.86,2.03-3.23,3.36-4.11c1.33-0.88,3.01-1.3,5.04-1.24v3.98
			c-1.5,0-2.79,0.21-3.85,0.62c-1.06,0.41-1.92,1.02-2.56,1.81c-0.65,0.8-1.12,1.76-1.42,2.9c-0.29,1.13-0.44,2.44-0.44,3.91v10.17
			h-3.76V35.17H347.07z"/>
		<path class="st0" d="M357.07,41.92c0.47-1.46,1.18-2.73,2.12-3.8c0.94-1.08,2.11-1.92,3.49-2.54c1.38-0.62,2.98-0.93,4.77-0.93
			c1.83,0,3.43,0.31,4.8,0.93c1.37,0.62,2.53,1.47,3.47,2.54c0.94,1.08,1.65,2.34,2.12,3.8c0.47,1.46,0.71,3.03,0.71,4.71
			s-0.24,3.24-0.71,4.69c-0.47,1.44-1.18,2.7-2.12,3.78c-0.94,1.08-2.1,1.92-3.47,2.52c-1.37,0.6-2.97,0.91-4.8,0.91
			c-1.8,0-3.39-0.3-4.77-0.91c-1.39-0.6-2.55-1.44-3.49-2.52c-0.94-1.08-1.65-2.33-2.12-3.78s-0.71-3.01-0.71-4.69
			S356.6,43.37,357.07,41.92z M360.89,50.32c0.37,1.08,0.88,1.97,1.53,2.7c0.65,0.72,1.41,1.27,2.28,1.66
			c0.87,0.38,1.79,0.58,2.76,0.58s1.89-0.19,2.76-0.58c0.87-0.38,1.63-0.93,2.28-1.66c0.65-0.72,1.16-1.62,1.53-2.7
			c0.37-1.08,0.55-2.31,0.55-3.69c0-1.38-0.18-2.62-0.55-3.69c-0.37-1.08-0.88-1.98-1.53-2.72c-0.65-0.74-1.41-1.3-2.28-1.68
			c-0.87-0.38-1.79-0.57-2.76-0.57s-1.89,0.19-2.76,0.57c-0.87,0.38-1.63,0.94-2.28,1.68c-0.65,0.74-1.16,1.64-1.53,2.72
			c-0.37,1.08-0.55,2.31-0.55,3.69C360.34,48.01,360.52,49.24,360.89,50.32z"/>
		<path class="st0" d="M397.62,58.03v-3.63h-0.09c-0.8,1.41-1.81,2.45-3.05,3.12c-1.24,0.66-2.7,1-4.38,1c-1.5,0-2.76-0.2-3.76-0.6
			c-1-0.4-1.81-0.96-2.43-1.7c-0.62-0.74-1.05-1.61-1.3-2.63c-0.25-1.02-0.38-2.14-0.38-3.38V35.17h3.76v15.47
			c0,1.41,0.41,2.54,1.24,3.36c0.83,0.83,1.96,1.24,3.4,1.24c1.15,0,2.14-0.18,2.98-0.53c0.84-0.35,1.54-0.85,2.1-1.5
			c0.56-0.65,0.98-1.41,1.26-2.28s0.42-1.82,0.42-2.85V35.17h3.76v22.86H397.62z"/>
		<path class="st0" d="M409.82,35.17v3.09h0.09c0.62-1.27,1.59-2.19,2.92-2.76c1.33-0.57,2.79-0.86,4.38-0.86
			c1.77,0,3.31,0.32,4.62,0.97c1.31,0.65,2.4,1.52,3.27,2.63c0.87,1.11,1.52,2.38,1.97,3.82c0.44,1.44,0.66,2.98,0.66,4.6
			c0,1.62-0.21,3.15-0.64,4.6c-0.43,1.45-1.08,2.71-1.95,3.78c-0.87,1.08-1.96,1.92-3.27,2.54c-1.31,0.62-2.84,0.93-4.58,0.93
			c-0.56,0-1.19-0.06-1.88-0.18c-0.69-0.12-1.38-0.31-2.06-0.58c-0.68-0.26-1.32-0.63-1.92-1.08c-0.6-0.46-1.11-1.02-1.53-1.7h-0.09
			v11.76h-3.76V35.17H409.82z M423.33,43.29c-0.28-1.02-0.71-1.92-1.28-2.72c-0.58-0.8-1.31-1.43-2.21-1.9
			c-0.9-0.47-1.95-0.71-3.16-0.71c-1.27,0-2.34,0.25-3.23,0.75c-0.88,0.5-1.61,1.16-2.17,1.97c-0.56,0.81-0.97,1.73-1.22,2.76
			c-0.25,1.03-0.38,2.08-0.38,3.14c0,1.12,0.13,2.2,0.4,3.25c0.27,1.05,0.69,1.97,1.26,2.76c0.58,0.79,1.32,1.44,2.23,1.92
			s2.02,0.73,3.32,0.73c1.3,0,2.38-0.25,3.25-0.75c0.87-0.5,1.57-1.16,2.1-1.99c0.53-0.83,0.91-1.77,1.15-2.83
			c0.24-1.06,0.35-2.15,0.35-3.27C423.75,45.34,423.61,44.3,423.33,43.29z"/>
	</g>
</g>
<g>
	<path class="st1" d="M9.26,47.47c-0.84,2.29-3.38,3.48-5.68,2.64c-2.29-0.84-3.48-3.38-2.64-5.67L9.88,19.9
		c0.84-2.29,3.38-3.48,5.68-2.64c2.3,0.83,3.48,3.37,2.64,5.67L9.26,47.47L9.26,47.47z"/>
	<path class="st2" d="M24.53,53.89c-1.1,3.01-4.42,4.56-7.43,3.46c-3.01-1.1-4.56-4.42-3.47-7.42l12.13-33.29
		c1.09-3.01,4.42-4.56,7.43-3.46c3.01,1.09,4.56,4.42,3.46,7.43L24.53,53.89L24.53,53.89z"/>
	<path class="st3" d="M43.74,61.72c-1.47,4.02-5.93,6.1-9.95,4.63c-4.03-1.47-6.11-5.92-4.65-9.95l15.94-43.75
		c1.47-4.04,5.93-6.11,9.96-4.64c4.03,1.47,6.1,5.92,4.64,9.96L43.74,61.72L43.74,61.72z"/>
	<path class="st4" d="M67.87,71.51c-1.94,5.32-7.84,8.07-13.17,6.13c-5.33-1.94-8.08-7.84-6.14-13.16L69.31,7.55
		c1.94-5.33,7.83-8.08,13.17-6.14c5.32,1.94,8.07,7.83,6.13,13.17L67.87,71.51L67.87,71.51z"/>
</g>
<g>
	<path class="st0" d="M426.16,28.01c0.18-0.41,0.43-0.76,0.74-1.06c0.31-0.3,0.67-0.54,1.08-0.71c0.41-0.17,0.85-0.26,1.31-0.26
		c0.46,0,0.9,0.09,1.31,0.26s0.77,0.41,1.07,0.71c0.31,0.3,0.55,0.66,0.73,1.06c0.18,0.41,0.27,0.85,0.27,1.33
		c0,0.49-0.09,0.94-0.27,1.35c-0.18,0.41-0.42,0.77-0.73,1.07c-0.31,0.3-0.67,0.54-1.07,0.71c-0.41,0.17-0.85,0.25-1.31,0.25
		c-0.46,0-0.9-0.08-1.31-0.25c-0.41-0.17-0.77-0.4-1.08-0.71s-0.56-0.66-0.74-1.07c-0.18-0.41-0.27-0.86-0.27-1.35
		C425.89,28.86,425.98,28.42,426.16,28.01z M426.72,30.48c0.14,0.35,0.34,0.66,0.59,0.92c0.25,0.26,0.54,0.46,0.88,0.61
		c0.34,0.15,0.71,0.22,1.11,0.22c0.39,0,0.75-0.07,1.09-0.22c0.34-0.15,0.63-0.35,0.88-0.61c0.25-0.26,0.45-0.56,0.59-0.92
		c0.14-0.35,0.21-0.74,0.21-1.15c0-0.4-0.07-0.78-0.21-1.13c-0.14-0.35-0.34-0.65-0.59-0.91c-0.25-0.26-0.54-0.46-0.88-0.6
		c-0.34-0.15-0.7-0.22-1.09-0.22c-0.4,0-0.77,0.07-1.11,0.22c-0.34,0.15-0.63,0.35-0.88,0.6c-0.25,0.26-0.44,0.56-0.59,0.91
		c-0.14,0.35-0.21,0.73-0.21,1.13C426.5,29.75,426.57,30.13,426.72,30.48z M429.5,27.38c0.47,0,0.82,0.09,1.04,0.28
		c0.23,0.19,0.34,0.47,0.34,0.85c0,0.36-0.1,0.62-0.3,0.78c-0.2,0.17-0.45,0.26-0.74,0.29l1.13,1.74h-0.66l-1.07-1.7h-0.65v1.7
		h-0.61v-3.94H429.5z M429.23,29.13c0.14,0,0.27,0,0.39-0.01c0.12-0.01,0.23-0.03,0.33-0.08c0.1-0.04,0.17-0.11,0.23-0.19
		c0.06-0.09,0.09-0.21,0.09-0.37c0-0.13-0.03-0.24-0.08-0.32c-0.05-0.08-0.12-0.14-0.2-0.18c-0.08-0.04-0.17-0.07-0.28-0.09
		c-0.11-0.01-0.21-0.02-0.31-0.02h-0.81v1.25H429.23z"/>
</g>
</svg>
