<?xml version="1.0" encoding="utf-8"?>
<!-- Generator: Adobe Illustrator 26.3.1, SVG Export Plug-In . SVG Version: 6.00 Build 0)  -->
<svg version="1.1" id="Layer_1" xmlns="http://www.w3.org/2000/svg" xmlns:xlink="http://www.w3.org/1999/xlink" x="0px" y="0px"
	 viewBox="0 0 187.9 151" style="enable-background:new 0 0 187.9 151;" xml:space="preserve">
<style type="text/css">
	.st0{fill:#E77C22;}
	.st1{fill:#466EA5;}
	.st2{fill:#6390C6;}
	.st3{fill:#6E8F82;}
	.st4{fill:#AB404B;}
</style>
<g>
	<path class="st0" d="M151.4,52.3c-1.6,4.3-6.3,6.5-10.7,4.9l0,0c-4.3-1.6-6.5-6.3-5-10.5l14.7-39.8c1.6-4.3,6.3-6.5,10.7-4.9l0,0
		c4.3,1.6,6.5,6.3,5,10.5L151.4,52.3z"/>
	<path class="st1" d="M38.5,78c-1.6,4.3-6.3,6.5-10.7,4.9l0,0c-4.3-1.6-6.5-6.3-5-10.5l16.8-45.5c1.6-4.3,6.3-6.5,10.7-4.9l0,0
		c4.3,1.5,6.5,6.3,5,10.5L38.5,78z"/>
	<g>
		<path class="st2" d="M64.3,78c-1.6,4.3-6.3,6.5-10.7,4.9l0,0c-4.3-1.6-6.5-6.3-5-10.5l16.9-45.5c1.6-4.3,6.3-6.5,10.7-4.9l0,0
			c4.3,1.5,6.5,6.3,5,10.5L64.3,78z"/>
	</g>
	<g>
		<path class="st3" d="M90.1,78c-1.6,4.3-6.3,6.5-10.7,4.9l0,0c-4.3-1.6-6.5-6.3-5-10.5l16.8-45.5c1.6-4.3,6.3-6.5,10.7-4.9l0,0
			c4.3,1.5,6.5,6.3,5,10.5L90.1,78z"/>
	</g>
	<g>
		<path class="st4" d="M116,78c-1.6,4.3-6.3,6.5-10.7,4.9l0,0c-4.3-1.6-6.5-6.3-5-10.5l24.2-65.6c1.6-4.3,6.3-6.5,10.7-4.9l0,0
			c4.3,1.6,6.5,6.3,5,10.5L116,78z"/>
	</g>
</g>
<g>
	<g>
		<path class="st1" d="M184.8,114.7c1.7,0,3.1,1.3,3.1,3.1c0,1.8-1.5,3.1-3.1,3.1c-1.7,0-3.1-1.3-3.1-3.1
			C181.7,116,183.2,114.7,184.8,114.7z M184.8,120.5c1.5,0,2.6-1.2,2.6-2.7c0-1.5-1.1-2.6-2.6-2.6s-2.6,1.2-2.6,2.6
			C182.3,119.3,183.4,120.5,184.8,120.5z M183.6,116h1.4c0.8,0,1.2,0.3,1.2,1s-0.4,1-1,1l1,1.6h-0.6l-1-1.6h-0.6v1.6h-0.6L183.6,116
			L183.6,116z M184.2,117.6h0.6c0.5,0,1,0,1-0.6c0-0.5-0.4-0.6-0.8-0.6h-0.8L184.2,117.6L184.2,117.6z"/>
	</g>
	<g>
		<g>
			<path class="st1" d="M5.1,114.9l8.9,23.7l8.9-23.7H28v28.2h-3.5v-23.4h-0.1l-8.8,23.4h-3.2l-8.8-23.5H3.5v23.5H0v-28.2H5.1z"/>
			<path class="st1" d="M51,143.1c-0.6,0.3-1.4,0.5-2.4,0.5c-0.9,0-1.6-0.3-2.1-0.8c-0.5-0.5-0.8-1.3-0.8-2.4
				c-0.9,1.1-2,1.9-3.2,2.4c-1.2,0.5-2.6,0.8-3.9,0.8c-0.9,0-1.8-0.1-2.6-0.3c-0.8-0.2-1.5-0.6-2.1-1c-0.6-0.4-1.1-1-1.5-1.7
				s-0.6-1.6-0.6-2.6c0-1.2,0.2-2.1,0.6-2.8c0.4-0.8,0.9-1.3,1.6-1.8c0.6-0.5,1.4-0.8,2.2-1c0.8-0.2,1.7-0.4,2.6-0.6
				c0.9-0.2,1.8-0.3,2.6-0.4s1.6-0.2,2.2-0.4c0.6-0.1,1.1-0.4,1.5-0.8c0.3-0.3,0.6-0.8,0.6-1.5c0-0.8-0.1-1.3-0.4-1.8
				c-0.3-0.4-0.6-0.8-1-1c-0.4-0.2-0.9-0.4-1.5-0.5c-0.6-0.1-1-0.1-1.6-0.1c-1.5,0-2.6,0.3-3.5,0.8c-1,0.6-1.5,1.6-1.5,3h-3.3
				c0.1-1.2,0.3-2.4,0.8-3.2c0.5-0.9,1.1-1.6,1.9-2.1c0.8-0.6,1.7-0.9,2.7-1.2c1-0.2,2.1-0.3,3.3-0.3c0.9,0,1.8,0.1,2.8,0.2
				c0.9,0.1,1.7,0.4,2.5,0.8s1.3,1,1.8,1.7c0.4,0.8,0.7,1.7,0.7,2.9v10.5c0,0.8,0.1,1.4,0.1,1.7c0.1,0.3,0.4,0.6,0.9,0.6
				c0.3,0,0.6-0.1,1-0.1v2.6H51z M45.5,132.6c-0.4,0.3-1,0.6-1.7,0.7c-0.7,0.1-1.4,0.3-2.1,0.3c-0.8,0.1-1.5,0.2-2.3,0.3
				c-0.8,0.1-1.5,0.3-2.1,0.6c-0.6,0.3-1.1,0.6-1.5,1.1c-0.4,0.5-0.6,1.2-0.6,2c0,0.6,0.1,1,0.3,1.4c0.2,0.3,0.5,0.7,0.9,0.9
				c0.3,0.2,0.8,0.4,1.2,0.5c0.5,0.1,1,0.1,1.5,0.1c1.1,0,2.1-0.1,2.8-0.5c0.8-0.3,1.5-0.7,1.9-1.1c0.5-0.5,0.9-1,1.1-1.5
				c0.2-0.6,0.3-1,0.3-1.5L45.5,132.6L45.5,132.6z"/>
			<path class="st1" d="M57.3,122.8v3.3h0.1c1.4-2.5,3.6-3.7,6.7-3.7c1.3,0,2.5,0.2,3.3,0.6c0.9,0.3,1.6,0.9,2.1,1.5
				c0.6,0.7,1,1.5,1.2,2.4c0.2,0.9,0.3,1.9,0.3,3v13.4h-3.3v-13.9c0-1.2-0.3-2.3-1.1-3c-0.8-0.8-1.7-1.1-3-1.1c-1,0-1.9,0.1-2.6,0.5
				c-0.8,0.3-1.4,0.8-1.9,1.3c-0.5,0.6-0.9,1.2-1.1,2c-0.3,0.8-0.3,1.6-0.3,2.6v11.5h-3.3v-20.4H57.3z"/>
			<path class="st1" d="M78.7,122.8v2.8h0.1c0.6-1.1,1.5-1.9,2.6-2.5c1.2-0.5,2.5-0.8,3.9-0.8c1.6,0,3,0.3,4.2,0.9
				c1.2,0.6,2.1,1.4,2.9,2.4c0.8,1,1.4,2.1,1.7,3.4c0.4,1.3,0.6,2.6,0.6,4.1s-0.2,2.8-0.6,4.1c-0.4,1.3-1,2.4-1.7,3.4
				c-0.8,1-1.7,1.7-2.9,2.3c-1.2,0.6-2.6,0.8-4.1,0.8c-0.5,0-1-0.1-1.7-0.1c-0.6-0.1-1.2-0.3-1.9-0.5c-0.6-0.2-1.2-0.6-1.7-1
				s-1-0.9-1.4-1.5h-0.1V151h-3.3v-28.2H78.7z M90.8,130c-0.3-0.9-0.6-1.7-1.2-2.4c-0.5-0.7-1.2-1.2-1.9-1.7
				c-0.8-0.4-1.7-0.6-2.8-0.6c-1.1,0-2.1,0.2-2.9,0.7c-0.8,0.4-1.5,1-1.9,1.7c-0.5,0.7-0.8,1.5-1.1,2.5c-0.2,0.9-0.3,1.9-0.3,2.8
				c0,1,0.1,1.9,0.3,2.9c0.2,0.9,0.6,1.7,1.1,2.5c0.5,0.7,1.2,1.3,2,1.7c0.8,0.4,1.8,0.6,3,0.6c1.2,0,2.1-0.2,2.9-0.7
				c0.8-0.4,1.4-1,1.9-1.8s0.8-1.6,1-2.5c0.2-1,0.3-1.9,0.3-2.9C91.1,131.8,91,130.9,90.8,130z"/>
			<path class="st1" d="M97.6,128.8c0.4-1.3,1-2.4,1.9-3.4s1.9-1.7,3.1-2.3c1.2-0.6,2.6-0.8,4.3-0.8c1.7,0,3,0.3,4.3,0.8
				c1.2,0.6,2.3,1.3,3.1,2.3c0.8,1,1.5,2.1,1.9,3.4c0.4,1.3,0.6,2.7,0.6,4.2c0,1.5-0.2,2.9-0.6,4.2c-0.4,1.3-1,2.4-1.9,3.4
				s-1.9,1.7-3.1,2.2c-1.2,0.6-2.6,0.8-4.3,0.8c-1.6,0-3-0.3-4.3-0.8c-1.2-0.6-2.3-1.3-3.1-2.2c-0.8-1-1.5-2.1-1.9-3.4
				c-0.4-1.3-0.6-2.7-0.6-4.2C96.9,131.5,97.2,130,97.6,128.8z M101,136.3c0.3,1,0.8,1.7,1.4,2.4c0.6,0.6,1.2,1.1,2,1.5
				c0.8,0.3,1.6,0.5,2.5,0.5c0.9,0,1.7-0.1,2.5-0.5c0.8-0.3,1.5-0.8,2-1.5c0.6-0.6,1-1.5,1.4-2.4s0.5-2.1,0.5-3.3s-0.1-2.4-0.5-3.3
				s-0.8-1.8-1.4-2.4c-0.6-0.6-1.2-1.2-2-1.5c-0.8-0.3-1.6-0.5-2.5-0.5c-0.9,0-1.7,0.1-2.5,0.5c-0.8,0.3-1.5,0.8-2,1.5
				c-0.6,0.7-1,1.5-1.4,2.4s-0.5,2.1-0.5,3.3C100.5,134.2,100.7,135.3,101,136.3z"/>
			<path class="st1" d="M136.4,143.1l-4.2-16.2h-0.1l-4.1,16.2h-3.6l-6.6-20.4h3.7l4.6,16.7h0.1l4.1-16.7h3.7l4.3,16.7h0.1l4.6-16.7
				h3.5l-6.5,20.4H136.4z"/>
			<path class="st1" d="M162.7,141.9c-1.5,1.2-3.5,1.7-5.7,1.7c-1.7,0-3-0.3-4.2-0.8c-1.2-0.6-2.2-1.2-3-2.2c-0.8-1-1.5-2.1-1.8-3.4
				c-0.4-1.3-0.6-2.8-0.7-4.3c0-1.5,0.2-3,0.7-4.3c0.5-1.3,1.1-2.4,2-3.3c0.8-1,1.9-1.7,3-2.2c1.2-0.6,2.4-0.8,3.9-0.8
				c1.8,0,3.3,0.3,4.5,1.1c1.2,0.8,2.1,1.7,2.9,2.8c0.7,1.2,1.2,2.4,1.5,3.8c0.3,1.4,0.4,2.7,0.3,3.9h-15.4c0,0.9,0.1,1.7,0.3,2.6
				c0.2,0.8,0.6,1.5,1.2,2.1c0.6,0.6,1.2,1.1,2,1.5c0.8,0.3,1.8,0.6,2.9,0.6c1.5,0,2.6-0.3,3.5-1c0.9-0.6,1.5-1.7,1.8-3h3.3
				C165.2,139,164.2,140.7,162.7,141.9z M161.8,128.7c-0.3-0.7-0.7-1.3-1.2-1.9c-0.5-0.5-1.1-0.9-1.8-1.2c-0.7-0.3-1.5-0.5-2.3-0.5
				c-0.9,0-1.7,0.1-2.4,0.5c-0.7,0.3-1.3,0.7-1.8,1.2c-0.5,0.6-0.9,1.1-1.2,1.9c-0.3,0.7-0.5,1.5-0.5,2.2h11.7
				C162.3,130.2,162.2,129.5,161.8,128.7z"/>
			<path class="st1" d="M172.6,122.8v4.3h0.1c0.8-1.7,1.8-2.9,3-3.7c1.2-0.8,2.7-1.2,4.5-1.1v3.5c-1.3,0-2.5,0.2-3.5,0.6
				s-1.7,0.9-2.3,1.6c-0.6,0.7-1,1.6-1.2,2.6c-0.3,1-0.4,2.1-0.4,3.5v9.1h-3.3v-20.3H172.6z"/>
		</g>
	</g>
</g>
</svg>
