<?xml version="1.0" encoding="utf-8"?>
<!-- Generator: Adobe Illustrator 15.0.0, SVG Export Plug-In . SVG Version: 6.00 Build 0)  -->
<!DOCTYPE svg PUBLIC "-//W3C//DTD SVG 1.1//EN" "http://www.w3.org/Graphics/SVG/1.1/DTD/svg11.dtd">
<svg version="1.1" id="Vrstva_1" xmlns="http://www.w3.org/2000/svg" xmlns:xlink="http://www.w3.org/1999/xlink" x="0px" y="0px"
	 width="290px" height="46px" viewBox="0 0 290 46" enable-background="new 0 0 290 46" xml:space="preserve">
<g>
	<path fill="#F21C0A" d="M16.843,23.079c0,5.748,4.717,10.469,10.433,10.469v-5.25c-2.875,0-5.186-2.344-5.186-5.219H16.843z
		 M6.343,38.794c5.779,0,10.5-4.716,10.5-10.496h-5.248c0,2.905-2.345,5.25-5.252,5.25V38.794z M48.238,33.548h-5.216v5.246
		c-2.905,0-5.248-2.372-5.248-5.246c0-2.875,2.343-5.25,5.248-5.25C45.893,28.298,48.238,30.673,48.238,33.548 M43.022,44.013v0.5
		H16.843v-5.719h-5.248v5.719H1.126V28.298h5.217v-5.219H1.126V2.117h41.896v20.962c-5.78,0-10.5,4.688-10.5,10.469
		c0,2.874-2.342,5.246-5.246,5.246c-2.875,0-5.186-2.372-5.186-5.246h-5.247c0,5.777,4.717,10.465,10.433,10.465
		c3.122,0,5.936-1.407,7.872-3.562C37.054,42.605,39.867,44.013,43.022,44.013"/>
	<path fill="#F21C0A" d="M85.327,4.774c0,0.563-0.113,0.905-0.341,1.414C81.256,14.73,70.9,31.022,65.301,38.436h18.274
		c1.243,0,2.034,0.735,2.034,2.035v2.037c0,1.244-0.791,2.035-2.034,2.035H57.267c-1.244,0-2.035-0.791-2.035-2.035v-0.85
		c0-0.79,0.221-1.131,0.676-1.695C62.077,32.04,72.54,16.37,75.933,8.225H58.174c-1.303,0-2.039-0.737-2.039-2.036V4.151
		c0-1.244,0.736-2.035,2.039-2.035H83.29c1.3,0,2.037,0.791,2.037,2.035V4.774z"/>
	<path fill="#F21C0A" d="M100.023,38.831h1.979c4.47,0,7.695-1.64,7.695-6.222c0-3.849-2.373-5.15-5.656-5.997l-6.11-1.642
		c-4.414-1.133-9.053-4.132-9.053-11.541c0-7.582,6.055-11.769,14.483-11.769h1.754c2.605,0,6.053,0.623,8.318,1.189
		c1.246,0.282,1.7,1.017,1.7,2.317v2.265c0,1.018-0.513,1.472-1.418,1.472c-0.224,0-0.451,0-0.678-0.058
		c-2.32-0.509-5.489-1.018-7.922-1.018h-1.638c-4.302,0-7.241,1.471-7.241,5.601c0,3.62,2.318,4.696,5.258,5.544l5.999,1.641
		c5.262,1.471,9.617,4.356,9.617,11.995c0,8.202-5.998,12.391-15.108,12.391h-1.979c-3.111,0-7.638-0.907-9.731-1.416
		c-1.301-0.341-1.696-1.019-1.696-2.318v-2.38c0-1.017,0.454-1.523,1.301-1.523c0.227,0,0.454,0.055,0.734,0.109
		C92.726,37.983,96.912,38.831,100.023,38.831"/>
	<path fill="#F21C0A" d="M131.163,44.544c-7.354,0-11.087-3.903-11.087-11.484V4.149c0-1.244,0.792-2.036,2.034-2.036h21.332
		c1.241,0,2.036,0.792,2.036,2.036v2.037c0,1.36-0.795,2.038-2.036,2.038h-16.127v11.257h14.372c1.244,0,2.036,0.68,2.036,1.98
		v2.094c0,1.244-0.792,2.038-2.036,2.038h-14.372v7.013c0,4.075,1.644,5.828,5.207,5.828h11.314c1.246,0,2.041,0.678,2.041,2.036
		v2.037c0,1.246-0.795,2.036-2.041,2.036H131.163z"/>
	<g>
		<rect x="159.814" y="1" fill="#F21C0A" width="0.873" height="43.956"/>
	</g>
	<path fill="#A8A8A8" d="M174.303,44.559h14.396v-3.272h-8.307l8.616-14.685V26.11h-13.724v3.25h7.816l-8.798,14.683V44.559z
		 M197.89,44.843c4.36,0,7.043-2.603,7.043-5.88c0-3.821-2.295-5.032-6.762-5.603c-2.84-0.413-3.434-1.032-3.434-2.349
		c0-1.239,0.93-2.092,2.764-2.092c1.832,0,2.814,0.775,3.072,2.454h3.842c-0.335-3.665-2.76-5.521-6.914-5.521
		c-4.079,0-6.708,2.345-6.708,5.493c0,3.563,1.933,4.981,6.655,5.603c2.713,0.412,3.486,0.929,3.486,2.4
		c0,1.443-1.213,2.452-3.045,2.452c-2.738,0-3.438-1.367-3.617-3.021h-3.996C190.509,42.472,192.83,44.843,197.89,44.843
		 M207.955,44.559h12.433v-3.246h-8.285v-4.598h6.297v-3.044h-6.297V29.36h7.871v-3.25h-12.019V44.559z"/>
	<path fill="#A8A8A8" d="M182.275,21.022c4.362,0,7.043-2.604,7.043-5.882c0-3.819-2.294-5.03-6.761-5.601
		c-2.836-0.412-3.432-1.032-3.432-2.349c0-1.237,0.928-2.089,2.762-2.089s2.814,0.772,3.074,2.451h3.84
		c-0.334-3.665-2.756-5.522-6.914-5.522c-4.077,0-6.707,2.347-6.707,5.497c0,3.56,1.934,4.979,6.654,5.599
		c2.713,0.414,3.487,0.931,3.487,2.402c0,1.446-1.215,2.452-3.047,2.452c-2.737,0-3.435-1.367-3.612-3.021h-3.998
		C174.896,18.651,177.218,21.022,182.275,21.022 M192.341,20.74h4.178v-8.283l6.374,8.283h4.876l-7.664-9.729l7.305-8.747h-4.439
		l-6.451,7.975V2.292h-4.178V20.74z M217.112,21.022c4.98,0,7.79-2.604,7.79-7.636V2.292h-4.203v10.837
		c0,3.382-1.084,4.568-3.562,4.568c-2.531,0-3.434-1.342-3.434-4.414V2.292h-4.203v11.251
		C209.501,18.444,212.261,21.022,217.112,21.022 M228.729,20.74h4.147v-6.71h2.353c4.205,0,6.913-1.857,6.913-5.754V8.173
		c0-3.896-2.553-5.881-7.043-5.881h-6.37V20.74z M232.876,11.117V5.461h2.118c1.99,0,3.126,0.775,3.126,2.737v0.104
		c0,1.832-1.085,2.814-3.126,2.814H232.876z M244.983,20.74h4.203V2.292h-4.203V20.74z M253.267,20.74h3.714V7.607l7.692,13.133
		h4.177V2.292h-3.712v12.151l-7.023-12.151h-4.848V20.74z M271.382,20.74h3.922l1.262-4.104h6.684l1.264,4.104h4.361L282.89,2.292
		h-5.445L271.382,20.74z M279.921,5.694l2.426,7.977h-4.877L279.921,5.694z"/>
</g>
</svg>
