<?xml version="1.0" encoding="utf-8"?>
<!-- Generator: Adobe Illustrator 25.2.3, SVG Export Plug-In . SVG Version: 6.00 Build 0)  -->
<svg version="1.1" id="Layer_1" xmlns="http://www.w3.org/2000/svg" xmlns:xlink="http://www.w3.org/1999/xlink" x="0px" y="0px"
	 width="74px" height="49px" viewBox="0 0 74 49" style="enable-background:new 0 0 74 49;" xml:space="preserve">
<g>
	<path style="fill:#231F20;" d="M9.269,24.784c0.004,0.681-0.1,1.327-0.311,1.941c-0.211,0.613-0.549,1.114-1.018,1.504
		c-0.468,0.391-1.086,0.593-1.854,0.606c-1.031-0.024-1.823-0.411-2.381-1.157c-0.557-0.747-0.839-1.711-0.845-2.893
		c0-1.24,0.272-2.226,0.812-2.954s1.345-1.101,2.414-1.118c0.699,0.012,1.284,0.208,1.756,0.592
		c0.471,0.382,0.828,0.881,1.067,1.496C9.148,23.414,9.268,24.076,9.269,24.784z M0.415,36.427h2.532v-7.393
		c0.464,0.629,1.023,1.088,1.719,1.375c0.698,0.287,1.423,0.429,2.177,0.424c1.132-0.017,2.065-0.306,2.798-0.868
		c0.733-0.564,1.276-1.299,1.631-2.205c0.355-0.906,0.531-1.884,0.529-2.931c0-1.133-0.196-2.159-0.59-3.08
		c-0.393-0.919-0.989-1.651-1.786-2.198c-0.797-0.545-1.799-0.826-3.007-0.839c-0.747-0.003-1.435,0.143-2.065,0.442
		c-0.629,0.299-1.128,0.773-1.496,1.425l-0.044-1.556H0.415V36.427z M12.645,30.525h2.532v-5.471
		c0.021-1.273,0.324-2.247,0.907-2.92c0.583-0.673,1.318-1.012,2.208-1.017c0.179,0.002,0.361,0.015,0.544,0.039l0.545,0.072v-2.443
		l-0.345-0.042c-0.129-0.014-0.332-0.024-0.612-0.025c-0.803,0.029-1.521,0.299-2.155,0.808c-0.632,0.509-1.034,1.084-1.204,1.725
		l-0.044-2.221h-2.377C12.645,19.031,12.645,30.525,12.645,30.525z M24.746,28.837c-0.754-0.013-1.373-0.216-1.857-0.61
		c-0.483-0.394-0.839-0.9-1.071-1.515c-0.23-0.618-0.345-1.265-0.344-1.946c-0.001-0.674,0.114-1.316,0.344-1.93
		c0.231-0.613,0.587-1.117,1.071-1.509c0.484-0.393,1.102-0.597,1.857-0.61c0.755,0.014,1.373,0.217,1.857,0.61
		c0.483,0.393,0.839,0.896,1.07,1.509c0.231,0.614,0.345,1.257,0.344,1.93c0.001,0.681-0.114,1.329-0.344,1.946
		c-0.23,0.616-0.587,1.121-1.07,1.515C26.12,28.621,25.501,28.824,24.746,28.837z M24.746,30.836
		c1.857-0.033,3.286-0.602,4.287-1.708c1-1.107,1.505-2.561,1.517-4.361c-0.012-1.789-0.517-3.237-1.517-4.342
		c-1.001-1.106-2.43-1.675-4.287-1.707c-1.858,0.032-3.286,0.6-4.286,1.707c-1.001,1.104-1.506,2.552-1.517,4.342
		c0.011,1.8,0.517,3.254,1.517,4.361C21.46,30.234,22.888,30.804,24.746,30.836z M30.068,20.917h1.89v9.608h2.532v-9.608h2.157
		v-1.887h-2.157v-1.18c0.009-0.469,0.13-0.789,0.364-0.961c0.233-0.171,0.528-0.251,0.882-0.242c0.251,0,0.47,0.012,0.656,0.034
		c0.185,0.022,0.359,0.056,0.522,0.1v-1.977c-0.2-0.055-0.445-0.095-0.739-0.12s-0.641-0.037-1.041-0.036
		c-0.557-0.012-1.075,0.066-1.554,0.235c-0.48,0.17-0.868,0.502-1.164,0.997c-0.298,0.495-0.45,1.226-0.459,2.191v0.958h-1.89
		C30.068,19.031,30.068,20.917,30.068,20.917z M47.236,25.432c0.133-1.167-0.005-2.259-0.414-3.272s-1.044-1.836-1.902-2.468
		c-0.858-0.629-1.894-0.954-3.11-0.973c-1.146,0.015-2.134,0.297-2.963,0.848c-0.828,0.549-1.467,1.282-1.915,2.195
		c-0.447,0.913-0.674,1.922-0.679,3.028c0.01,1.8,0.497,3.25,1.461,4.351c0.965,1.1,2.353,1.666,4.163,1.698
		c1.283-0.007,2.394-0.344,3.337-1.015c0.942-0.669,1.567-1.635,1.868-2.898h-2.403c-0.219,0.634-0.558,1.112-1.018,1.432
		c-0.459,0.32-1.052,0.481-1.785,0.481c-1.052-0.029-1.832-0.371-2.338-1.026c-0.504-0.654-0.756-1.447-0.753-2.378h8.453
		L47.236,25.432L47.236,25.432z M38.783,23.767c0.045-0.877,0.339-1.601,0.88-2.167c0.541-0.569,1.257-0.862,2.146-0.884
		c0.863,0.028,1.549,0.335,2.055,0.924c0.504,0.589,0.783,1.297,0.835,2.126L38.783,23.767L38.783,23.767L38.783,23.767z
		 M49.176,29.853c-0.914-0.644-1.405-1.621-1.473-2.929h2.539c0.094,0.679,0.372,1.168,0.833,1.464
		c0.479,0.308,1.066,0.459,1.76,0.45c0.334,0.007,0.701-0.027,1.103-0.1s0.746-0.219,1.035-0.437
		c0.287-0.219,0.428-0.544,0.421-0.976c-0.033-0.435-0.231-0.768-0.595-0.995c-0.363-0.227-0.824-0.404-1.385-0.53
		c-0.561-0.126-1.153-0.255-1.783-0.387c-0.97-0.171-1.819-0.497-2.545-0.976c-0.727-0.48-1.107-1.289-1.145-2.428
		c0.021-0.832,0.281-1.487,0.78-1.969c0.501-0.481,1.115-0.823,1.848-1.024c0.731-0.202,1.457-0.301,2.174-0.295
		c1.214-0.014,2.269,0.257,3.17,0.808s1.445,1.46,1.634,2.726h-2.646c-0.124-0.59-0.402-0.995-0.833-1.218
		c-0.431-0.222-0.934-0.328-1.503-0.318c-0.258-0.004-0.546,0.024-0.868,0.084s-0.604,0.174-0.844,0.345
		c-0.242,0.171-0.367,0.421-0.38,0.751c0.012,0.407,0.196,0.72,0.554,0.938c0.359,0.219,0.818,0.392,1.385,0.519
		c0.565,0.127,1.166,0.258,1.799,0.39c0.628,0.133,1.223,0.318,1.785,0.555c0.561,0.237,1.02,0.576,1.376,1.02
		c0.356,0.441,0.541,1.037,0.552,1.784c-0.018,0.907-0.286,1.635-0.802,2.184c-0.517,0.548-1.164,0.945-1.944,1.189
		c-0.782,0.246-1.577,0.366-2.391,0.361C51.315,30.838,50.111,30.511,49.176,29.853z M58.68,17.204h2.532v-2.4H58.68V17.204z
		 M58.68,30.525h2.532V19.03H58.68V30.525z M69.83,26.656v-1.892c-0.402,0.241-0.88,0.394-1.434,0.462
		c-0.554,0.068-1.115,0.144-1.683,0.228c-0.563,0.074-1.043,0.248-1.442,0.522c-0.399,0.275-0.608,0.739-0.625,1.391
		c0.013,0.376,0.148,0.671,0.408,0.885c0.261,0.216,0.57,0.367,0.928,0.456c0.358,0.089,0.693,0.132,1.001,0.128
		c0.384,0.004,0.797-0.066,1.233-0.209s0.811-0.374,1.123-0.694C69.649,27.613,69.814,27.188,69.83,26.656z M72.361,22.051v5.918
		c-0.004,0.307,0.038,0.531,0.125,0.667c0.088,0.136,0.247,0.203,0.476,0.199l0.268-0.005c0.103-0.005,0.221-0.018,0.355-0.038
		v1.754c-0.207,0.07-0.467,0.136-0.784,0.194c-0.317,0.06-0.589,0.091-0.817,0.095c-0.515,0.007-0.943-0.096-1.286-0.307
		c-0.341-0.213-0.564-0.577-0.668-1.092c-0.519,0.486-1.14,0.841-1.86,1.066c-0.718,0.224-1.426,0.335-2.124,0.333
		c-1.069,0-1.983-0.278-2.743-0.835s-1.156-1.399-1.192-2.521c0.015-0.943,0.24-1.659,0.673-2.15
		c0.433-0.49,0.985-0.833,1.655-1.031s1.37-0.331,2.098-0.398c0.616-0.098,1.184-0.178,1.705-0.239
		c0.518-0.061,0.938-0.187,1.255-0.377c0.318-0.19,0.479-0.528,0.489-1.012c-0.035-0.639-0.303-1.063-0.807-1.27
		c-0.502-0.207-1.026-0.303-1.575-0.287c-0.722-0.001-1.309,0.147-1.761,0.445c-0.379,0.25-0.62,0.614-0.729,1.091h-2.551
		c0.105-0.842,0.386-1.514,0.842-2.016c0.505-0.559,1.143-0.954,1.913-1.184c0.768-0.229,1.582-0.341,2.441-0.334
		c0.765-0.004,1.496,0.105,2.192,0.326c0.698,0.221,1.269,0.577,1.716,1.066C72.114,20.6,72.345,21.248,72.361,22.051z"/>
	<g>
		<path style="fill:#FBAE17;" d="M17.355,14.779c1.282-3.755,3.622-7.211,6.997-9.818c8.68-6.71,20.977-5.608,28.642,1.677
			l0.954-2.88l1.49,10.523c-3.635-6.713-10.74-11.274-18.91-11.274C28.156,3.007,20.903,7.793,17.355,14.779z"/>
	</g>
	<g>
		<path style="fill:#EC1C24;" d="M55.866,34.22c-1.285,3.757-3.623,7.211-6.998,9.82c-8.681,6.708-20.977,5.606-28.641-1.678
			l-0.955,2.879L17.782,34.72c3.635,6.712,10.741,11.273,18.911,11.273C45.065,45.993,52.318,41.206,55.866,34.22z"/>
	</g>
</g>
</svg>
