<?xml version="1.0" encoding="utf-8"?>
<!-- Generator: Adobe Illustrator 26.3.1, SVG Export Plug-In . SVG Version: 6.00 Build 0)  -->
<svg version="1.1" id="Layer_1" xmlns="http://www.w3.org/2000/svg" xmlns:xlink="http://www.w3.org/1999/xlink" x="0px" y="0px"
	 viewBox="0 0 238.5 139.1" style="enable-background:new 0 0 238.5 139.1;" xml:space="preserve">
<style type="text/css">
	.st0{fill:#5AA3D2;}
	.st1{fill-rule:evenodd;clip-rule:evenodd;fill:#3A84B6;}
	.st2{fill-rule:evenodd;clip-rule:evenodd;fill:#5AA3D2;}
	.st3{fill-rule:evenodd;clip-rule:evenodd;fill:#70A095;}
	.st4{fill-rule:evenodd;clip-rule:evenodd;fill:#E77C22;}
</style>
<g>
	<g>
		<g>
			<g>
				<g>
					<path class="st0" d="M4.2,107.8l7.2,20.7l7.3-20.7h4.2v24.6H20v-20.5h-0.1l-7.2,20.5h-2.6L3,111.9H2.9v20.5H0v-24.6H4.2z"/>
					<path class="st0" d="M41.5,132.3c-0.5,0.3-1.1,0.4-2,0.4c-0.7,0-1.3-0.2-1.7-0.6c-0.4-0.4-0.6-1.1-0.6-2.1
						c-0.8,1-1.6,1.7-2.6,2.1c-1,0.4-2.1,0.6-3.2,0.6c-0.8,0-1.5-0.1-2.1-0.3c-0.7-0.2-1.3-0.5-1.8-0.9c-0.5-0.4-0.9-0.9-1.2-1.5
						c-0.3-0.6-0.4-1.4-0.4-2.3c0-1,0.2-1.8,0.5-2.5s0.7-1.2,1.3-1.6c0.5-0.4,1.1-0.7,1.8-0.9c0.7-0.2,1.4-0.4,2.1-0.5
						c0.8-0.2,1.5-0.3,2.1-0.4s1.3-0.2,1.8-0.3c0.5-0.1,0.9-0.4,1.2-0.6c0.3-0.3,0.4-0.7,0.4-1.3c0-0.6-0.1-1.2-0.3-1.6
						c-0.2-0.4-0.5-0.7-0.9-0.9c-0.3-0.2-0.8-0.3-1.2-0.4s-0.9-0.1-1.3-0.1c-1.2,0-2.1,0.2-2.9,0.7s-1.2,1.4-1.2,2.7h-2.7
						c0-1.1,0.3-2,0.6-2.8c0.4-0.8,0.9-1.4,1.5-1.8s1.4-0.8,2.2-1c0.8-0.2,1.7-0.3,2.7-0.3c0.8,0,1.5,0.1,2.2,0.2
						c0.7,0.1,1.4,0.4,2,0.7s1.1,0.9,1.4,1.5c0.4,0.6,0.6,1.5,0.6,2.5v9.1c0,0.7,0,1.2,0.1,1.5c0.1,0.3,0.3,0.5,0.8,0.5
						c0.2,0,0.5-0.1,0.8-0.1L41.5,132.3L41.5,132.3z M37.1,123.2c-0.3,0.3-0.8,0.5-1.3,0.6s-1.1,0.2-1.8,0.3s-1.2,0.2-1.8,0.3
						c-0.6,0.1-1.2,0.3-1.7,0.5s-0.9,0.6-1.2,1c-0.3,0.4-0.5,1-0.5,1.7c0,0.5,0.1,0.9,0.3,1.2s0.4,0.6,0.7,0.8
						c0.3,0.2,0.6,0.4,1,0.4c0.4,0.1,0.8,0.1,1.2,0.1c0.9,0,1.7-0.1,2.3-0.4c0.6-0.3,1.2-0.6,1.6-1c0.4-0.4,0.7-0.8,0.9-1.3
						s0.3-0.9,0.3-1.3C37.1,126.2,37.1,123.2,37.1,123.2z"/>
					<path class="st0" d="M46.6,114.5v2.8h0.1c1.1-2.2,2.9-3.2,5.4-3.2c1.1,0,2,0.2,2.7,0.5c0.7,0.3,1.3,0.8,1.8,1.3
						c0.4,0.6,0.8,1.3,0.9,2.1c0.2,0.8,0.3,1.7,0.3,2.6v11.7h-2.7v-12.1c0-1.1-0.3-2-0.9-2.6s-1.4-1-2.5-1c-0.8,0-1.6,0.1-2.2,0.4
						c-0.6,0.3-1.1,0.7-1.5,1.2c-0.4,0.5-0.7,1.1-0.9,1.8c-0.2,0.7-0.3,1.4-0.3,2.2v10.1H44v-17.8L46.6,114.5L46.6,114.5z"/>
					<path class="st0" d="M64,114.5v2.4h0.1c0.4-1,1.2-1.7,2.1-2.1c1-0.4,2-0.7,3.2-0.7c1.3,0,2.4,0.2,3.4,0.8s1.8,1.2,2.4,2.1
						c0.6,0.9,1.1,1.9,1.4,3c0.3,1.1,0.5,2.3,0.5,3.6s-0.2,2.5-0.5,3.6c-0.3,1.1-0.8,2.1-1.4,2.9c-0.6,0.8-1.4,1.5-2.4,2
						s-2.1,0.7-3.3,0.7c-0.4,0-0.9-0.1-1.4-0.1c-0.5-0.1-1-0.2-1.5-0.4c-0.5-0.2-1-0.5-1.4-0.8c-0.4-0.4-0.8-0.8-1.1-1.3H64v9.2
						h-2.7v-24.6L64,114.5L64,114.5z M73.9,120.9c-0.2-0.8-0.5-1.5-0.9-2.1s-0.9-1.1-1.6-1.5c-0.6-0.4-1.4-0.6-2.3-0.6
						c-0.9,0-1.7,0.2-2.3,0.6c-0.6,0.4-1.2,0.9-1.6,1.5s-0.7,1.4-0.9,2.1c-0.2,0.8-0.3,1.6-0.3,2.4c0,0.9,0.1,1.7,0.3,2.5
						c0.2,0.8,0.5,1.5,0.9,2.1s1,1.1,1.6,1.5s1.5,0.6,2.4,0.6s1.7-0.2,2.4-0.6c0.6-0.4,1.1-0.9,1.5-1.6s0.7-1.4,0.8-2.2
						c0.2-0.8,0.3-1.7,0.3-2.6C74.2,122.5,74.1,121.7,73.9,120.9z"/>
					<path class="st0" d="M79.4,119.8c0.3-1.1,0.9-2.1,1.5-3c0.7-0.8,1.5-1.5,2.5-2c1-0.5,2.2-0.7,3.5-0.7c1.3,0,2.5,0.2,3.5,0.7
						s1.8,1.1,2.5,2c0.7,0.8,1.2,1.8,1.5,3c0.3,1.1,0.5,2.4,0.5,3.7s-0.2,2.5-0.5,3.6c-0.3,1.1-0.9,2.1-1.5,2.9
						c-0.7,0.8-1.5,1.5-2.5,2c-1,0.5-2.2,0.7-3.5,0.7c-1.3,0-2.5-0.2-3.5-0.7c-1-0.5-1.9-1.1-2.5-2c-0.7-0.8-1.2-1.8-1.5-2.9
						c-0.3-1.1-0.5-2.3-0.5-3.6S79,120.9,79.4,119.8z M82.2,126.3c0.3,0.8,0.6,1.5,1.1,2.1c0.5,0.6,1,1,1.7,1.3
						c0.6,0.3,1.3,0.4,2,0.4c0.7,0,1.4-0.1,2-0.4c0.6-0.3,1.2-0.7,1.7-1.3c0.5-0.6,0.8-1.3,1.1-2.1c0.3-0.8,0.4-1.8,0.4-2.9
						s-0.1-2-0.4-2.9c-0.3-0.8-0.6-1.6-1.1-2.1c-0.5-0.6-1-1-1.7-1.3c-0.6-0.3-1.3-0.4-2-0.4c-0.7,0-1.4,0.1-2,0.4s-1.2,0.7-1.7,1.3
						c-0.5,0.6-0.8,1.3-1.1,2.1s-0.4,1.8-0.4,2.9S81.9,125.5,82.2,126.3z"/>
					<path class="st0" d="M111,132.4l-3.4-14.2h-0.1l-3.4,14.2h-3l-5.3-17.8h3l3.8,14.6h0.1l3.4-14.6h3l3.5,14.6h0.1l3.7-14.6h2.8
						l-5.3,17.8L111,132.4L111,132.4z"/>
					<path class="st0" d="M132.3,131.2c-1.2,1-2.8,1.5-4.7,1.5c-1.3,0-2.5-0.2-3.5-0.7c-1-0.5-1.8-1.1-2.5-1.9
						c-0.7-0.8-1.2-1.8-1.5-3c-0.3-1.1-0.5-2.4-0.6-3.8c0-1.4,0.2-2.6,0.6-3.7c0.4-1.1,0.9-2.1,1.6-2.9c0.7-0.8,1.5-1.5,2.5-1.9
						c0.9-0.5,2-0.7,3.1-0.7c1.5,0,2.7,0.3,3.7,1c1,0.6,1.8,1.5,2.4,2.5c0.6,1,1,2.1,1.2,3.3c0.2,1.2,0.3,2.3,0.3,3.4h-12.4
						c0,0.8,0.1,1.5,0.3,2.2c0.2,0.7,0.5,1.3,0.9,1.9s1,1,1.6,1.3c0.7,0.3,1.4,0.5,2.4,0.5c1.2,0,2.1-0.3,2.9-0.9s1.2-1.4,1.5-2.6
						h2.7C134.4,128.7,133.6,130.2,132.3,131.2z M131.7,119.8c-0.2-0.6-0.6-1.1-1-1.6c-0.4-0.4-0.9-0.8-1.5-1.1
						c-0.6-0.3-1.2-0.4-1.9-0.4c-0.7,0-1.4,0.1-1.9,0.4c-0.6,0.3-1.1,0.6-1.5,1.1c-0.4,0.5-0.7,1-1,1.6c-0.2,0.6-0.4,1.3-0.4,1.9
						h9.6C132.1,121.1,131.9,120.4,131.7,119.8z"/>
					<path class="st0" d="M140.4,114.5v3.8h0.1c0.7-1.4,1.5-2.5,2.4-3.2s2.2-1,3.7-1v3.1c-1.1,0-2,0.2-2.8,0.5
						c-0.8,0.3-1.4,0.8-1.9,1.4s-0.8,1.4-1,2.3c-0.2,0.9-0.3,1.9-0.3,3.1v7.9h-2.7v-17.8L140.4,114.5L140.4,114.5z"/>
					<path class="st0" d="M163.2,132.1c-1.3,0.6-2.7,0.8-4,0.8c-1.7,0-3.2-0.3-4.6-1c-1.4-0.7-2.5-1.6-3.4-2.7
						c-0.9-1.1-1.7-2.5-2.2-4c-0.5-1.5-0.7-3-0.7-4.6c0-1.8,0.2-3.5,0.7-5.1s1.1-3,2.1-4.3s2.1-2.2,3.4-2.9s2.9-1.1,4.8-1.1
						c1.2,0,2.4,0.1,3.5,0.5c1.1,0.3,2.1,0.8,3,1.5c0.9,0.7,1.6,1.5,2.2,2.5s1,2.3,1.2,3.7H166c-0.1-0.9-0.4-1.8-0.8-2.4
						s-0.9-1.2-1.5-1.7c-0.6-0.4-1.3-0.8-2-1s-1.6-0.3-2.4-0.3c-1.4,0-2.6,0.3-3.6,0.9c-1,0.6-1.8,1.4-2.4,2.4s-1.1,2.1-1.4,3.3
						c-0.3,1.2-0.4,2.5-0.4,3.8c0,1.3,0.2,2.5,0.5,3.7c0.3,1.2,0.9,2.2,1.5,3.1c0.7,0.9,1.5,1.6,2.5,2.2c1,0.5,2.1,0.8,3.4,0.8
						c1.2,0,2.3-0.2,3.2-0.6c0.9-0.4,1.7-1,2.3-1.7c0.6-0.7,1.1-1.6,1.4-2.6c0.3-1,0.5-2,0.4-3.1h-7.3v-2.8h10.1v13h-1.9l-0.8-3.1
						C165.7,130.6,164.5,131.5,163.2,132.1z"/>
					<path class="st0" d="M175.4,114.5v3.8h0.1c0.7-1.4,1.5-2.5,2.4-3.2s2.2-1,3.7-1v3.1c-1.1,0-2,0.2-2.8,0.5
						c-0.8,0.3-1.4,0.8-1.9,1.4c-0.5,0.6-0.8,1.4-1,2.3c-0.2,0.9-0.3,1.9-0.3,3.1v7.9h-2.7v-17.8L175.4,114.5L175.4,114.5z"/>
					<path class="st0" d="M182.6,119.8c0.3-1.1,0.9-2.1,1.5-3c0.7-0.8,1.5-1.5,2.5-2s2.2-0.7,3.5-0.7c1.3,0,2.5,0.2,3.5,0.7
						s1.8,1.1,2.5,2c0.7,0.8,1.2,1.8,1.5,3c0.3,1.1,0.5,2.4,0.5,3.7s-0.2,2.5-0.5,3.6c-0.3,1.1-0.9,2.1-1.5,2.9
						c-0.7,0.8-1.5,1.5-2.5,2c-1,0.5-2.2,0.7-3.5,0.7c-1.3,0-2.5-0.2-3.5-0.7c-1-0.5-1.9-1.1-2.5-2c-0.7-0.8-1.2-1.8-1.5-2.9
						c-0.3-1.1-0.5-2.3-0.5-3.6S182.2,120.9,182.6,119.8z M185.4,126.3c0.3,0.8,0.6,1.5,1.1,2.1c0.5,0.6,1,1,1.7,1.3
						c0.6,0.3,1.3,0.4,2,0.4s1.4-0.1,2-0.4c0.6-0.3,1.2-0.7,1.7-1.3c0.5-0.6,0.8-1.3,1.1-2.1c0.3-0.8,0.4-1.8,0.4-2.9
						s-0.1-2-0.4-2.9c-0.3-0.8-0.6-1.6-1.1-2.1c-0.5-0.6-1-1-1.7-1.3c-0.6-0.3-1.3-0.4-2-0.4s-1.4,0.1-2,0.4
						c-0.6,0.3-1.2,0.7-1.7,1.3c-0.5,0.6-0.8,1.3-1.1,2.1s-0.4,1.8-0.4,2.9C184.9,124.5,185.1,125.5,185.4,126.3z"/>
					<path class="st0" d="M211.9,132.4v-2.8h-0.1c-0.6,1.1-1.3,1.9-2.2,2.4c-0.9,0.5-2,0.8-3.2,0.8c-1.1,0-2-0.1-2.7-0.5
						c-0.7-0.3-1.3-0.8-1.8-1.3s-0.8-1.3-0.9-2.1c-0.2-0.8-0.3-1.7-0.3-2.6v-11.7h2.7v12.1c0,1.1,0.3,2,0.9,2.6c0.6,0.6,1.4,1,2.5,1
						c0.8,0,1.6-0.1,2.2-0.4c0.6-0.3,1.1-0.7,1.5-1.2c0.4-0.5,0.7-1.1,0.9-1.8c0.2-0.7,0.3-1.4,0.3-2.2v-10.1h2.7v17.8L211.9,132.4
						L211.9,132.4z"/>
					<path class="st0" d="M220.8,114.5v2.4h0.1c0.5-1,1.2-1.7,2.1-2.1c1-0.4,2-0.7,3.2-0.7c1.3,0,2.4,0.2,3.4,0.8
						c1,0.5,1.8,1.2,2.4,2.1s1.1,1.9,1.4,3c0.3,1.1,0.5,2.3,0.5,3.6s-0.2,2.5-0.5,3.6c-0.3,1.1-0.8,2.1-1.4,2.9
						c-0.6,0.8-1.4,1.5-2.4,2s-2.1,0.7-3.3,0.7c-0.4,0-0.9-0.1-1.4-0.1c-0.5-0.1-1-0.2-1.5-0.4c-0.5-0.2-1-0.5-1.4-0.8
						c-0.4-0.4-0.8-0.8-1.1-1.3h-0.1v9.2h-2.7v-24.6L220.8,114.5L220.8,114.5z M230.7,120.9c-0.2-0.8-0.5-1.5-0.9-2.1
						s-1-1.1-1.6-1.5c-0.6-0.4-1.4-0.6-2.3-0.6c-0.9,0-1.7,0.2-2.4,0.6c-0.6,0.4-1.2,0.9-1.6,1.5c-0.4,0.6-0.7,1.4-0.9,2.1
						c-0.2,0.8-0.3,1.6-0.3,2.4c0,0.9,0.1,1.7,0.3,2.5c0.2,0.8,0.5,1.5,0.9,2.1s1,1.1,1.6,1.5s1.5,0.6,2.4,0.6s1.7-0.2,2.4-0.6
						c0.6-0.4,1.1-0.9,1.5-1.6c0.4-0.6,0.7-1.4,0.8-2.2c0.2-0.8,0.3-1.7,0.3-2.6C231,122.5,230.9,121.7,230.7,120.9z"/>
				</g>
			</g>
		</g>
		<g>
			<path class="st1" d="M81.1,50.1c-0.8,2.5-3.4,3.7-5.7,2.8c-2.3-0.9-3.5-3.6-2.6-6.1l8.9-26.3c0.8-2.5,3.4-3.7,5.7-2.8
				s3.5,3.6,2.7,6.1L81.1,50.1L81.1,50.1z"/>
			<path class="st2" d="M96.4,57c-1.1,3.2-4.4,4.9-7.4,3.7s-4.6-4.8-3.5-8L97.7,17c1.1-3.2,4.4-4.9,7.4-3.7c3,1.2,4.6,4.7,3.5,8
				L96.4,57L96.4,57z"/>
			<path class="st3" d="M115.7,65.4c-1.5,4.3-5.9,6.6-10,5c-4-1.6-6.1-6.4-4.6-10.7l16-47c1.5-4.3,5.9-6.6,10-5
				c4,1.6,6.1,6.3,4.6,10.7L115.7,65.4L115.7,65.4z"/>
			<path class="st4" d="M139.8,75.9c-1.9,5.7-7.9,8.7-13.2,6.6c-5.3-2.1-8.1-8.4-6.1-14.1l20.8-61.1c1.9-5.7,7.8-8.7,13.2-6.6
				c5.3,2.1,8.1,8.4,6.1,14.1L139.8,75.9L139.8,75.9z"/>
		</g>
		<g>
			<path class="st0" d="M233.8,109.2c0.1-0.3,0.3-0.6,0.5-0.8c0.2-0.2,0.5-0.4,0.8-0.6c0.3-0.1,0.6-0.2,1-0.2c0.3,0,0.6,0.1,1,0.2
				c0.3,0.1,0.6,0.3,0.8,0.6s0.4,0.5,0.5,0.8s0.2,0.7,0.2,1c0,0.4-0.1,0.7-0.2,1.1s-0.3,0.6-0.5,0.8c-0.2,0.2-0.5,0.4-0.8,0.6
				s-0.6,0.2-1,0.2c-0.3,0-0.6-0.1-1-0.2c-0.3-0.1-0.6-0.3-0.8-0.6c-0.2-0.2-0.4-0.5-0.5-0.8c-0.1-0.3-0.2-0.7-0.2-1.1
				C233.6,109.8,233.7,109.5,233.8,109.2z M234.2,111.1c0.1,0.3,0.2,0.5,0.4,0.7c0.2,0.2,0.4,0.4,0.6,0.5c0.2,0.1,0.5,0.2,0.8,0.2
				s0.5-0.1,0.8-0.2c0.2-0.1,0.5-0.3,0.6-0.5c0.2-0.2,0.3-0.4,0.4-0.7c0.1-0.3,0.1-0.6,0.1-0.9c0-0.3,0-0.6-0.1-0.9
				s-0.2-0.5-0.4-0.7c-0.2-0.2-0.4-0.4-0.6-0.5c-0.2-0.1-0.5-0.2-0.8-0.2c-0.3,0-0.6,0.1-0.8,0.2c-0.2,0.1-0.5,0.3-0.6,0.5
				c-0.2,0.2-0.3,0.4-0.4,0.7c-0.1,0.3-0.1,0.6-0.1,0.9C234.1,110.5,234.1,110.8,234.2,111.1z M236.2,108.7c0.3,0,0.6,0.1,0.8,0.2
				c0.2,0.1,0.2,0.4,0.2,0.7c0,0.3-0.1,0.5-0.2,0.6c-0.1,0.1-0.3,0.2-0.5,0.2l0.8,1.4h-0.5l-0.8-1.3h-0.5v1.3h-0.5v-3.1L236.2,108.7
				L236.2,108.7z M236,110c0.1,0,0.2,0,0.3,0s0.2,0,0.2-0.1c0.1,0,0.1-0.1,0.2-0.1c0-0.1,0.1-0.2,0.1-0.3c0-0.1,0-0.2-0.1-0.2
				s-0.1-0.1-0.1-0.1c-0.1,0-0.1-0.1-0.2-0.1c-0.1,0-0.1,0-0.2,0h-0.6v1L236,110L236,110z"/>
		</g>
	</g>
</g>
</svg>
