<svg xmlns="http://www.w3.org/2000/svg" xmlns:xlink="http://www.w3.org/1999/xlink" width="132.238" height="98" viewBox="0 0 132.238 98">
  <defs>
    <filter id="shadow" x="0" y="63" width="132.238" height="35" filterUnits="userSpaceOnUse">
      <feOffset dy="2" input="SourceAlpha"/>
      <feGaussianBlur stdDeviation="2" result="blur"/>
      <feFlood flood-opacity="0.102"/>
      <feComposite operator="in" in2="blur"/>
    </filter>
  </defs>
  <g id="header-logo" transform="translate(5.999)">
    <g transform="matrix(1, 0, 0, 1, -6, 0)" filter="url(#shadow)">
      <path id="shadow-2" data-name="shadow" d="M1.061,89.63l120.008,0a3.47,3.47,0,0,1,.063.774c-13.353,3.4-24.091,22.221-38.648,22.221H34.265c-12.643,0-21.661-18.382-33.372-22.3A1.3,1.3,0,0,1,1.061,89.63Z" transform="translate(5.11 -22.63)" fill="#fff"/>
    </g>
    <path id="background" d="M1.061,22.63l120.008,0s.063,67.241.063,67.774c-13.353,3.4-24.091,22.221-38.648,22.221H34.265c-12.643,0-21.661-18.382-33.372-22.3C.893,89.87,1.061,22.63,1.061,22.63Z" transform="translate(-0.893 -22.63)" fill="#fff"/>
    <g id="logo" transform="translate(-0.567 -1.373)">
      <path id="Path_11417" data-name="Path 11417" d="M11.064,26.814a7.26,7.26,0,0,1-.389,2.424A4.145,4.145,0,0,1,9.4,31.118a3.6,3.6,0,0,1-2.317.759,3.608,3.608,0,0,1-2.975-1.447,5.938,5.938,0,0,1-1.056-3.614A6.072,6.072,0,0,1,4.07,23.123a3.6,3.6,0,0,1,3.017-1.4,3.467,3.467,0,0,1,2.194.74,4.41,4.41,0,0,1,1.332,1.869,6.77,6.77,0,0,1,.451,2.479M0,41.363H3.165V32.125a5,5,0,0,0,2.148,1.718,6.951,6.951,0,0,0,2.719.53,5.725,5.725,0,0,0,3.5-1.085,6.3,6.3,0,0,0,2.038-2.755,9.9,9.9,0,0,0,.661-3.663,9.687,9.687,0,0,0-.737-3.849,6.228,6.228,0,0,0-2.231-2.747A6.651,6.651,0,0,0,7.5,19.226a5.876,5.876,0,0,0-2.579.552,4.166,4.166,0,0,0-1.869,1.782L3,19.615H0Zm15.283-7.375h3.164V27.15A5.569,5.569,0,0,1,19.58,23.5a3.526,3.526,0,0,1,2.759-1.272,5.73,5.73,0,0,1,.68.05l.682.09V19.318l-.431-.052c-.162-.017-.416-.03-.765-.031a4.456,4.456,0,0,0-2.693,1.01,4.141,4.141,0,0,0-1.5,2.156l-.056-2.775h-2.97V33.988M30.4,31.879a3.659,3.659,0,0,1-2.321-.762,4.389,4.389,0,0,1-1.338-1.893,6.878,6.878,0,0,1-.43-2.432,6.778,6.778,0,0,1,.43-2.412,4.355,4.355,0,0,1,1.338-1.886,3.913,3.913,0,0,1,4.641,0A4.357,4.357,0,0,1,34.06,24.38a6.751,6.751,0,0,1,.43,2.412,6.878,6.878,0,0,1-.43,2.432,4.366,4.366,0,0,1-1.336,1.893,3.656,3.656,0,0,1-2.321.762m0,2.5a7.035,7.035,0,0,0,5.357-2.134,7.9,7.9,0,0,0,1.894-5.451,7.855,7.855,0,0,0-1.894-5.425A7.025,7.025,0,0,0,30.4,19.234a7.018,7.018,0,0,0-5.356,2.133,7.84,7.84,0,0,0-1.9,5.425,7.9,7.9,0,0,0,1.9,5.451A7.028,7.028,0,0,0,30.4,34.377m6.652-12.395h2.362V33.988h3.164V21.982h2.7V19.624h-2.7V18.149a1.436,1.436,0,0,1,.456-1.2,1.736,1.736,0,0,1,1.1-.3,7.048,7.048,0,0,1,.82.042,4.592,4.592,0,0,1,.654.125v-2.47a5.084,5.084,0,0,0-.923-.15q-.551-.045-1.3-.044a5.411,5.411,0,0,0-1.942.294,2.747,2.747,0,0,0-1.455,1.246,5.5,5.5,0,0,0-.574,2.738v1.2H37.056Zm21.452,5.641a8.249,8.249,0,0,0-.519-4.089,7,7,0,0,0-2.377-3.084,6.569,6.569,0,0,0-3.886-1.216,6.7,6.7,0,0,0-3.7,1.06,6.855,6.855,0,0,0-2.393,2.743,8.578,8.578,0,0,0-.848,3.784,8.02,8.02,0,0,0,1.826,5.436,6.717,6.717,0,0,0,5.2,2.122,7.069,7.069,0,0,0,4.17-1.268,5.948,5.948,0,0,0,2.336-3.621h-3a3.479,3.479,0,0,1-1.272,1.789,3.813,3.813,0,0,1-2.231.6A3.59,3.59,0,0,1,48.887,30.6a4.7,4.7,0,0,1-.941-2.972H58.508ZM47.945,25.542a4.086,4.086,0,0,1,1.1-2.708,3.661,3.661,0,0,1,2.682-1.1,3.368,3.368,0,0,1,2.568,1.156,4.4,4.4,0,0,1,1.045,2.655H47.945Zm12.987,7.606a4.485,4.485,0,0,1-1.841-3.66h3.173A2.429,2.429,0,0,0,63.3,31.316a3.873,3.873,0,0,0,2.2.562,6.948,6.948,0,0,0,1.378-.125,3,3,0,0,0,1.293-.545,1.408,1.408,0,0,0,.526-1.22,1.528,1.528,0,0,0-.742-1.245,5.6,5.6,0,0,0-1.731-.662c-.7-.157-1.441-.319-2.228-.484a8.339,8.339,0,0,1-3.179-1.22,3.512,3.512,0,0,1-1.431-3.034,3.385,3.385,0,0,1,.975-2.46,5.288,5.288,0,0,1,2.311-1.28,9.807,9.807,0,0,1,2.715-.369,7.276,7.276,0,0,1,3.962,1.01A4.517,4.517,0,0,1,71.4,23.653H68.089a2.073,2.073,0,0,0-1.041-1.522,3.923,3.923,0,0,0-1.878-.4,5.5,5.5,0,0,0-1.085.1,2.618,2.618,0,0,0-1.055.431,1.132,1.132,0,0,0-.475.938,1.35,1.35,0,0,0,.692,1.172,5.725,5.725,0,0,0,1.731.649c.706.16,1.457.324,2.248.489a12.222,12.222,0,0,1,2.229.694,4.3,4.3,0,0,1,1.718,1.273,3.516,3.516,0,0,1,.691,2.229,3.952,3.952,0,0,1-1,2.729,5.545,5.545,0,0,1-2.429,1.486,9.718,9.718,0,0,1-2.987.452,7.69,7.69,0,0,1-4.517-1.232M72.808,17.341h3.164v-3H72.808Zm0,16.647h3.164V19.624H72.808ZM86.74,29.153V26.788a4.489,4.489,0,0,1-1.792.577q-1.038.127-2.1.285a4.085,4.085,0,0,0-1.8.654,2.028,2.028,0,0,0-.781,1.738,1.432,1.432,0,0,0,.509,1.106,2.884,2.884,0,0,0,1.16.57,5.019,5.019,0,0,0,1.251.16,4.834,4.834,0,0,0,1.542-.261,3.427,3.427,0,0,0,1.4-.867,2.3,2.3,0,0,0,.614-1.6M89.9,23.4v7.4a1.545,1.545,0,0,0,.156.833.643.643,0,0,0,.595.25l.334-.006c.129-.006.276-.024.445-.049v2.192a7.125,7.125,0,0,1-.982.242,6.429,6.429,0,0,1-1.021.119,2.932,2.932,0,0,1-1.606-.384,1.965,1.965,0,0,1-.835-1.365,5.949,5.949,0,0,1-2.324,1.332,8.842,8.842,0,0,1-2.653.416,5.636,5.636,0,0,1-3.429-1.043,3.821,3.821,0,0,1-1.491-3.15,4.059,4.059,0,0,1,.842-2.687A4.342,4.342,0,0,1,80,26.207a13.8,13.8,0,0,1,2.622-.5q1.155-.184,2.132-.3a3.929,3.929,0,0,0,1.567-.471,1.38,1.38,0,0,0,.611-1.263,1.644,1.644,0,0,0-1.008-1.587,4.7,4.7,0,0,0-1.967-.359,3.931,3.931,0,0,0-2.2.556,2.128,2.128,0,0,0-.908,1.363H77.66a4.466,4.466,0,0,1,1.052-2.519,5.122,5.122,0,0,1,2.389-1.48,10.291,10.291,0,0,1,3.05-.419,8.839,8.839,0,0,1,2.739.407,4.813,4.813,0,0,1,2.146,1.332A3.576,3.576,0,0,1,89.9,23.4" transform="translate(16.375 18.781)" fill="#231f20"/>
      <path id="Path_11418" data-name="Path 11418" d="M16.94,17.843A26.1,26.1,0,0,1,25.683,5.575C36.529-2.81,51.9-1.433,61.475,7.67l1.192-3.6,1.861,13.15a26.863,26.863,0,0,0-47.587.622" transform="translate(20.603 15.25)" fill="#fbae17"/>
      <path id="Path_11419" data-name="Path 11419" d="M64.957,33.721a26.127,26.127,0,0,1-8.743,12.271C45.366,54.374,30,53,20.423,43.9l-1.193,3.6L17.366,34.345a26.866,26.866,0,0,0,47.591-.624" transform="translate(20.711 23.667)" fill="#ec1c24"/>
    </g>
  </g>
</svg>
