<svg width="25" height="25" viewBox="0 0 25 25" fill="none" xmlns="http://www.w3.org/2000/svg">
<path d="M0 6.25C0 2.79822 2.79822 0 6.25 0H18.75C22.2018 0 25 2.79822 25 6.25V18.75C25 22.2018 22.2018 25 18.75 25H6.25C2.79822 25 0 22.2018 0 18.75V6.25Z" fill="#45BC7A"/>
<path d="M10.9754 14.2688L9.42615 13.5386C7.83362 12.788 7.03736 12.4127 6.94985 11.7337C6.86234 11.0547 7.53743 10.4898 8.88763 9.35993L15.12 4.14471C15.9739 3.43024 16.4008 3.073 16.5996 3.22644C16.7985 3.37989 16.5611 3.88342 16.0865 4.8905L13.7257 9.89938C13.6001 10.1659 13.5373 10.2991 13.5811 10.421C13.6248 10.5428 13.7581 10.6056 14.0246 10.7312L15.5738 11.4614C17.1663 12.212 17.9626 12.5873 18.0501 13.2663C18.1376 13.9453 17.4625 14.5102 16.1123 15.6401L9.87992 20.8553C9.02609 21.5698 8.59918 21.927 8.40034 21.7736C8.2015 21.6201 8.43882 21.1166 8.91348 20.1095L11.2743 15.1006C11.3999 14.8341 11.4627 14.7009 11.4189 14.579C11.3751 14.4572 11.2419 14.3944 10.9754 14.2688Z" fill="white"/>
</svg>
