<svg width="46" height="42" viewBox="0 0 46 42" fill="none" xmlns="http://www.w3.org/2000/svg">
<path fill-rule="evenodd" clip-rule="evenodd" d="M32.6903 24.0246C33.1233 24.421 33.1233 25.1033 32.6903 25.4997L31.5028 26.587C31.121 26.9366 30.5353 26.9369 30.153 26.5877L22.1445 19.271L14.1359 26.5877C13.7537 26.9369 13.168 26.9366 12.7862 26.587L11.5987 25.4997C11.1657 25.1033 11.1657 24.421 11.5987 24.0246L22.1445 14.3688L32.6903 24.0246Z" fill="#C2D1D9"/>
<mask id="mask0_62_1371" style="mask-type:luminance" maskUnits="userSpaceOnUse" x="11" y="14" width="23" height="13">
<path fill-rule="evenodd" clip-rule="evenodd" d="M32.6903 24.0246C33.1233 24.421 33.1233 25.1033 32.6903 25.4997L31.5028 26.587C31.121 26.9366 30.5353 26.9369 30.153 26.5877L22.1445 19.271L14.1359 26.5877C13.7537 26.9369 13.168 26.9366 12.7862 26.587L11.5987 25.4997C11.1657 25.1033 11.1657 24.421 11.5987 24.0246L22.1445 14.3688L32.6903 24.0246Z" fill="white"/>
</mask>
<g mask="url(#mask0_62_1371)">
<rect width="45.4054" height="41.5734" fill="#8E8E93"/>
</g>
</svg>
