<svg width="25" height="25" viewBox="0 0 25 25" fill="none" xmlns="http://www.w3.org/2000/svg">
<path d="M0 6.25C0 2.79822 2.79822 0 6.25 0H18.75C22.2018 0 25 2.79822 25 6.25V18.75C25 22.2018 22.2018 25 18.75 25H6.25C2.79822 25 0 22.2018 0 18.75V6.25Z" fill="#45BC7A"/>
<path d="M18.2441 10.539L19.6556 9.12841C19.7241 9.05991 19.7587 9.02536 19.7867 8.99542C20.6876 8.03393 20.6876 6.53834 19.7867 5.57685C19.7587 5.54686 19.7243 5.51253 19.6556 5.44386C19.5869 5.37526 19.5526 5.34096 19.5226 5.31291C18.5615 4.41342 17.0674 4.41342 16.1062 5.31291C16.0763 5.34095 16.042 5.37524 15.9734 5.44379L14.5379 6.87838C15.4131 8.40767 16.6932 9.677 18.2441 10.539Z" fill="white"/>
<path d="M12.7191 8.69603L6.9108 14.5008C6.37914 15.0321 6.1133 15.2978 5.9385 15.6242C5.76371 15.9507 5.68996 16.3192 5.54246 17.0562L5.10246 19.2549C5.01926 19.6706 4.97766 19.8785 5.0959 19.9968C5.21415 20.115 5.42204 20.0735 5.83781 19.9904L8.04018 19.5502C8.77676 19.403 9.14506 19.3294 9.47136 19.1548C9.79766 18.9803 10.0633 18.7148 10.5946 18.1838L16.4201 12.3619C14.9335 11.4184 13.6719 10.1657 12.7191 8.69603Z" fill="white"/>
</svg>
