<svg width="73" height="73" viewBox="0 0 73 73" fill="none" xmlns="http://www.w3.org/2000/svg">
<path d="M0.17002 24.0201C0.17002 18.6901 0.100024 13.3501 0.190024 8.02007C0.270024 3.33007 2.63002 0.770065 6.58002 0.800065C10.43 0.840065 13.01 3.53006 13.07 8.11006C13.2 17.7701 13 27.4401 13.18 37.1001C13.36 46.8501 19.1 54.7801 28.07 58.1801C36.92 61.5401 46.79 59.3801 52.98 51.8201C55.6 48.6201 57.74 44.3701 58.36 40.3301C59.34 33.9701 59.09 27.3801 58.91 20.9001C58.79 16.3801 55.44 13.3501 51.54 13.8301C47.27 14.3501 45.19 16.9901 45.12 21.3201C45.05 25.4201 44.65 31.0101 39.69 32.1301C37.2 32.6901 34.68 31.4501 33.24 29.4201C31.38 26.7901 31.78 21.6401 32.17 18.5701C32.58 15.3401 33.63 12.1801 35.41 9.45009C39.03 3.89009 45.26 0.980075 51.79 0.810075C62.39 0.530075 71 8.10009 71.79 19.0701C72.35 26.8301 72.35 34.7901 71.31 42.4901C68.85 60.7701 52.04 73.9201 33.75 72.6501C15.21 71.3701 0.770018 56.4801 0.200018 37.9901C0.0600183 33.3301 0.180025 28.6601 0.160025 23.9901L0.17002 24.0201Z" fill="white"/>
</svg>
